<?xml version="1.0" encoding="utf-8"?>
<!-- Generator: Adobe Illustrator 26.0.3, SVG Export Plug-In . SVG Version: 6.00 Build 0)  -->
<svg version="1.1" id="Layer_1" xmlns="http://www.w3.org/2000/svg" xmlns:xlink="http://www.w3.org/1999/xlink" x="0px" y="0px"
	 viewBox="0 0 135.38 43.32" style="enable-background:new 0 0 135.38 43.32;" xml:space="preserve">
<path d="M4.38,9.99h3.08v14.56H4.38V9.99z M7.93,15.32l1.39-2.48l5.09,11.71h-3.26l-2.58-6.09L7.93,19.5V15.32z M14.14,9.99
	l-3.2,5.04L9.7,12.25l1.22-2.26H14.14z"/>
<path d="M18.42,24.55h-2.85V9.99h2.85V24.55z M21.12,24.55l-2.36-8.11V9.99h0.87l2.28,10l2.23-10h0.89v6.56l-2.44,8H21.12z
	 M28.25,24.55h-2.88V9.99h2.88V24.55z"/>
<path d="M38.62,24.55h-3.06V9.99h3.06V24.55z M39.09,9.99h3.98v2.45h-3.98V9.99z M39.09,15.76h3.75v2.43h-3.75V15.76z"/>
<path d="M44.15,13.74c0-2.61,1.47-3.96,4.4-4.06v2.37c-0.86,0.11-1.29,0.63-1.29,1.54v7.34c0,0.94,0.43,1.46,1.29,1.56v2.35
	c-2.93-0.13-4.4-1.62-4.4-4.45V13.74z M50.42,13.59c0-0.94-0.44-1.46-1.32-1.54V9.66c3,0.03,4.5,1.41,4.5,4.16v6.66
	c0,2.84-1.5,4.3-4.5,4.38v-2.35c0.88-0.09,1.32-0.61,1.32-1.56V13.59z"/>
<path d="M59.54,24.85c-2.93-0.11-4.4-1.59-4.4-4.45V9.99h3.11v10.94c0,0.94,0.43,1.46,1.29,1.56V24.85z M60.08,22.49
	c0.43-0.05,0.77-0.19,1-0.43c0.23-0.24,0.34-0.62,0.34-1.13V9.99h3.15v10.48c-0.01,2.84-1.51,4.3-4.49,4.38V22.49z"/>
<path d="M69.03,24.55h-2.85V9.99h2.85V24.55z M72.71,23.58L69.4,16.2v-5.07l3.31,7.43V23.58z M75.96,24.55h-2.9V9.99h2.9V24.55z"/>
<path d="M80.65,9.99v14.56 M80.65,24.55h-3.03V9.99h3.03V24.55z M81.12,9.99h1.57c2.83,0,4.25,1.37,4.25,4.1v6.31
	c0,2.77-1.43,4.15-4.28,4.15h-1.54v-2.48h1.09c0.57,0,0.98-0.1,1.23-0.31c0.25-0.21,0.38-0.53,0.38-0.97v-6.82
	c0-0.53-0.13-0.91-0.39-1.14c-0.26-0.23-0.68-0.35-1.25-0.35h-1.05V9.99z"/>
<polygon points="95.11,9.99 98.47,24.55 95.27,24.55 94.65,21.5 92.01,21.5 92.45,19.07 94.2,19.07 93.17,13.15 90.82,24.55 
	87.81,24.55 91.17,9.99 "/>
<path d="M106.67,12.44h-9.44V9.99h9.44V12.44z M100.41,13.01h3.05v11.55h-3.05V13.01z"/>
<rect x="107.71" y="9.99" width="3.13" height="14.56"/>
<path d="M112.43,13.74c0-2.61,1.47-3.96,4.4-4.06v2.37c-0.86,0.11-1.29,0.63-1.29,1.54v7.34c0,0.94,0.43,1.46,1.29,1.56v2.35
	c-2.93-0.13-4.4-1.62-4.4-4.45V13.74z M118.7,13.59c0-0.94-0.44-1.46-1.32-1.54V9.66c3,0.03,4.5,1.41,4.5,4.16v6.66
	c0,2.84-1.5,4.3-4.5,4.38v-2.35c0.88-0.09,1.32-0.61,1.32-1.56V13.59z"/>
<path d="M126.3,24.55h-2.85V9.99h2.85V24.55z M129.98,23.58l-3.31-7.37v-5.07l3.31,7.43V23.58z M133.23,24.55h-2.9V9.99h2.9V24.55z"
	/>
<path d="M7.64,31.14c0,0.05-0.02,0.09-0.05,0.13c-0.03,0.04-0.07,0.05-0.12,0.05h-3c-0.04,0-0.08-0.02-0.12-0.05
	c-0.03-0.04-0.05-0.08-0.05-0.13v-0.68H3.92c-0.04,0-0.08-0.02-0.12-0.06c-0.03-0.04-0.05-0.08-0.05-0.13
	c0-0.05,0.02-0.09,0.05-0.13c0.03-0.04,0.07-0.05,0.12-0.05H4.3v-1.56c0-0.05,0.02-0.09,0.05-0.13c0.04-0.04,0.07-0.06,0.12-0.06h3
	c0.05,0,0.08,0.02,0.12,0.06c0.03,0.04,0.05,0.08,0.05,0.13c0,0.05-0.02,0.09-0.05,0.13c-0.03,0.04-0.07,0.05-0.12,0.05H4.64v1.39
	h2.28c0.05,0,0.08,0.02,0.12,0.05c0.03,0.04,0.05,0.08,0.05,0.13c0,0.05-0.02,0.09-0.05,0.13C7,30.44,6.96,30.46,6.92,30.46H4.64
	v0.5h2.83c0.05,0,0.08,0.02,0.12,0.06C7.62,31.05,7.64,31.09,7.64,31.14"/>
<path d="M11.45,29.82c0,0.33-0.06,0.59-0.18,0.79c-0.12,0.2-0.28,0.35-0.48,0.46c-0.19,0.1-0.41,0.17-0.66,0.21
	c-0.24,0.03-0.49,0.05-0.73,0.05H7.99c-0.04,0-0.08-0.02-0.12-0.06c-0.03-0.04-0.05-0.08-0.05-0.13v-2.62
	c0-0.05,0.02-0.09,0.05-0.13c0.03-0.04,0.07-0.06,0.12-0.06h1.41c0.24,0,0.48,0.02,0.72,0.05c0.24,0.03,0.46,0.1,0.66,0.21
	c0.2,0.11,0.36,0.26,0.48,0.45C11.39,29.23,11.45,29.49,11.45,29.82 M11.12,29.82c0-0.09-0.01-0.18-0.02-0.27
	c-0.01-0.09-0.04-0.17-0.07-0.26c-0.07-0.14-0.17-0.24-0.3-0.32c-0.13-0.08-0.28-0.14-0.43-0.18c-0.16-0.04-0.31-0.06-0.47-0.07
	c-0.16-0.01-0.3-0.01-0.42-0.01H8.16v2.25h1.25c0.12,0,0.27-0.01,0.43-0.02c0.16-0.01,0.32-0.04,0.47-0.08
	c0.15-0.04,0.29-0.1,0.42-0.18c0.13-0.08,0.23-0.19,0.3-0.34c0.04-0.08,0.06-0.17,0.08-0.26C11.11,30,11.12,29.91,11.12,29.82z"/>
<path d="M15.12,29.86c0,0.3-0.05,0.55-0.14,0.74c-0.09,0.19-0.22,0.34-0.38,0.45c-0.16,0.11-0.34,0.18-0.55,0.22
	c-0.21,0.04-0.44,0.06-0.68,0.06c-0.24,0-0.46-0.02-0.68-0.06c-0.21-0.04-0.4-0.11-0.55-0.22c-0.16-0.11-0.28-0.26-0.38-0.45
	c-0.09-0.19-0.14-0.44-0.14-0.74v-1.33c0-0.05,0.02-0.09,0.05-0.13c0.03-0.04,0.07-0.06,0.12-0.06c0.04,0,0.08,0.02,0.12,0.06
	c0.03,0.04,0.05,0.08,0.05,0.13v1.33c0,0.09,0,0.18,0.01,0.26c0.01,0.09,0.03,0.17,0.06,0.25c0.05,0.13,0.12,0.24,0.23,0.32
	c0.1,0.08,0.22,0.14,0.35,0.18c0.13,0.04,0.26,0.07,0.39,0.08c0.13,0.01,0.26,0.02,0.37,0.02c0.11,0,0.23-0.01,0.37-0.02
	c0.13-0.01,0.27-0.04,0.39-0.08c0.13-0.04,0.24-0.1,0.35-0.18c0.1-0.08,0.18-0.18,0.23-0.32c0.03-0.08,0.05-0.16,0.06-0.25
	c0.01-0.09,0.01-0.18,0.01-0.26v-1.33c0-0.05,0.02-0.09,0.05-0.13c0.03-0.04,0.07-0.06,0.12-0.06c0.04,0,0.08,0.02,0.12,0.06
	c0.03,0.04,0.05,0.08,0.05,0.13V29.86z"/>
<path d="M19.14,30.75c0,0.03,0,0.06-0.01,0.08c-0.01,0.02-0.02,0.04-0.04,0.06c-0.02,0.03-0.05,0.05-0.08,0.07
	c-0.03,0.02-0.06,0.04-0.08,0.06c-0.11,0.07-0.22,0.13-0.35,0.17c-0.13,0.04-0.26,0.07-0.4,0.1c-0.13,0.02-0.27,0.04-0.41,0.05
	c-0.14,0.01-0.26,0.01-0.39,0.01c-0.13,0-0.27,0-0.42-0.01c-0.15-0.01-0.3-0.03-0.45-0.06c-0.15-0.03-0.3-0.07-0.44-0.13
	c-0.14-0.06-0.26-0.13-0.36-0.22c-0.16-0.15-0.27-0.3-0.33-0.48c-0.06-0.18-0.09-0.37-0.09-0.59c0-0.22,0.03-0.42,0.09-0.59
	c0.06-0.18,0.17-0.34,0.33-0.48c0.1-0.09,0.22-0.17,0.36-0.22c0.14-0.06,0.28-0.1,0.44-0.13c0.15-0.03,0.3-0.05,0.45-0.06
	c0.15-0.01,0.29-0.01,0.42-0.01c0.12,0,0.25,0,0.39,0.01c0.14,0.01,0.27,0.02,0.41,0.05c0.13,0.02,0.27,0.06,0.4,0.1
	c0.13,0.04,0.25,0.1,0.35,0.17c0.03,0.02,0.05,0.04,0.08,0.05c0.03,0.02,0.05,0.04,0.08,0.07c0.02,0.02,0.03,0.04,0.04,0.06
	c0.01,0.02,0.01,0.05,0.01,0.08c0,0.05-0.02,0.09-0.05,0.13c-0.03,0.04-0.07,0.06-0.12,0.06c-0.04,0-0.07-0.01-0.11-0.04
	c-0.05-0.04-0.1-0.08-0.15-0.11c-0.09-0.05-0.19-0.1-0.3-0.13c-0.11-0.03-0.23-0.06-0.35-0.08c-0.12-0.02-0.24-0.03-0.35-0.03
	c-0.12-0.01-0.23-0.01-0.33-0.01c-0.12,0-0.26,0-0.42,0.01c-0.16,0.01-0.32,0.03-0.48,0.07c-0.16,0.04-0.3,0.09-0.44,0.17
	c-0.13,0.08-0.24,0.18-0.31,0.31c-0.04,0.08-0.08,0.18-0.09,0.27c-0.02,0.1-0.02,0.19-0.02,0.29c0,0.1,0.01,0.2,0.02,0.29
	c0.02,0.1,0.05,0.19,0.09,0.27c0.07,0.13,0.17,0.23,0.31,0.31c0.13,0.08,0.28,0.13,0.44,0.17c0.16,0.04,0.31,0.06,0.48,0.07
	c0.16,0.01,0.3,0.01,0.42,0.01c0.1,0,0.21,0,0.33-0.01c0.12,0,0.23-0.02,0.35-0.03c0.12-0.02,0.23-0.04,0.35-0.08
	c0.11-0.03,0.21-0.08,0.3-0.13c0.06-0.03,0.11-0.07,0.15-0.11c0.04-0.03,0.07-0.04,0.11-0.04c0.04,0,0.08,0.02,0.12,0.06
	C19.12,30.65,19.14,30.7,19.14,30.75"/>
<path d="M22.8,31.14c0,0.05-0.02,0.09-0.05,0.13c-0.03,0.04-0.07,0.05-0.12,0.05c-0.05,0-0.08-0.02-0.12-0.05
	c-0.03-0.04-0.05-0.08-0.05-0.13v-0.69h-2.82v0.69c0,0.05-0.02,0.09-0.05,0.13c-0.03,0.04-0.07,0.05-0.12,0.05
	c-0.04,0-0.08-0.02-0.12-0.05c-0.03-0.04-0.05-0.08-0.05-0.13V29.8c0-0.3,0.05-0.55,0.14-0.74c0.09-0.19,0.22-0.34,0.38-0.45
	c0.16-0.11,0.34-0.18,0.55-0.22c0.21-0.04,0.44-0.06,0.68-0.06c0.24,0,0.46,0.02,0.68,0.06c0.21,0.04,0.4,0.11,0.55,0.22
	c0.16,0.11,0.28,0.26,0.38,0.45c0.09,0.19,0.14,0.44,0.14,0.74V31.14z M22.47,29.8c0-0.08,0-0.17-0.01-0.25
	c-0.01-0.08-0.03-0.17-0.05-0.25c-0.05-0.14-0.12-0.25-0.23-0.33c-0.1-0.08-0.22-0.14-0.35-0.18c-0.13-0.04-0.26-0.06-0.39-0.07
	c-0.14-0.01-0.26-0.02-0.38-0.02c-0.11,0-0.23,0.01-0.36,0.02c-0.13,0.01-0.26,0.04-0.39,0.07c-0.13,0.04-0.24,0.1-0.35,0.17
	c-0.1,0.08-0.18,0.18-0.23,0.31c-0.04,0.08-0.06,0.17-0.06,0.26c-0.01,0.09-0.01,0.18-0.01,0.27v0.28h2.82V29.8z"/>
<path d="M25.93,28.52c0,0.05-0.02,0.09-0.05,0.13c-0.03,0.04-0.07,0.05-0.12,0.05h-1.33v2.44c0,0.05-0.02,0.09-0.05,0.13
	c-0.03,0.04-0.07,0.05-0.11,0.05c-0.04,0-0.08-0.02-0.12-0.05c-0.03-0.04-0.05-0.08-0.05-0.13V28.7h-1.33
	c-0.05,0-0.08-0.02-0.12-0.05c-0.03-0.04-0.05-0.08-0.05-0.13c0-0.05,0.02-0.09,0.05-0.13c0.03-0.04,0.07-0.06,0.12-0.06h3
	c0.05,0,0.08,0.02,0.12,0.06C25.92,28.43,25.93,28.47,25.93,28.52"/>
<path d="M28.27,31.14c0,0.05-0.02,0.09-0.05,0.13c-0.03,0.04-0.07,0.05-0.12,0.05h-1.81c-0.05,0-0.08-0.02-0.12-0.05
	c-0.03-0.04-0.05-0.08-0.05-0.13c0-0.05,0.02-0.09,0.05-0.13c0.03-0.04,0.07-0.06,0.12-0.06h0.74V28.7h-0.74
	c-0.05,0-0.08-0.02-0.12-0.05c-0.03-0.04-0.05-0.08-0.05-0.13c0-0.05,0.02-0.09,0.05-0.13c0.03-0.04,0.07-0.06,0.12-0.06h1.81
	c0.05,0,0.08,0.02,0.12,0.06c0.03,0.04,0.05,0.08,0.05,0.13c0,0.05-0.02,0.09-0.05,0.13c-0.03,0.04-0.07,0.05-0.12,0.05h-0.74v2.25
	h0.74c0.05,0,0.08,0.02,0.12,0.06C28.25,31.05,28.27,31.09,28.27,31.14"/>
<path d="M32.24,29.84c0,0.22-0.03,0.42-0.09,0.59c-0.06,0.18-0.17,0.34-0.33,0.48c-0.1,0.09-0.22,0.17-0.36,0.22
	c-0.14,0.06-0.29,0.1-0.44,0.13c-0.15,0.03-0.31,0.05-0.46,0.06c-0.15,0.01-0.29,0.01-0.41,0.01c-0.12,0-0.26,0-0.41-0.01
	c-0.15-0.01-0.3-0.03-0.46-0.06c-0.15-0.03-0.3-0.07-0.44-0.13c-0.14-0.05-0.26-0.13-0.36-0.22c-0.16-0.14-0.27-0.3-0.33-0.48
	c-0.06-0.18-0.09-0.37-0.09-0.59c0-0.22,0.03-0.42,0.09-0.59c0.06-0.18,0.17-0.34,0.33-0.48c0.1-0.09,0.22-0.16,0.36-0.22
	c0.14-0.05,0.28-0.1,0.44-0.13c0.15-0.03,0.3-0.05,0.46-0.06c0.15-0.01,0.29-0.02,0.41-0.02c0.12,0,0.26,0.01,0.41,0.02
	c0.15,0.01,0.3,0.03,0.46,0.06c0.15,0.03,0.3,0.07,0.44,0.13c0.14,0.06,0.26,0.13,0.36,0.22c0.16,0.14,0.27,0.3,0.33,0.48
	C32.21,29.42,32.24,29.62,32.24,29.84 M31.9,29.83c0-0.08,0-0.17-0.01-0.25c-0.01-0.08-0.03-0.17-0.06-0.25
	c-0.06-0.15-0.16-0.26-0.3-0.35c-0.14-0.08-0.29-0.15-0.45-0.19c-0.16-0.04-0.33-0.07-0.49-0.08c-0.17-0.01-0.31-0.01-0.44-0.01
	c-0.12,0-0.26,0-0.43,0.01c-0.16,0.01-0.33,0.03-0.49,0.07c-0.16,0.04-0.31,0.1-0.44,0.18c-0.13,0.08-0.24,0.19-0.3,0.33
	c-0.04,0.08-0.06,0.17-0.08,0.26c-0.01,0.09-0.02,0.18-0.02,0.27c0,0.09,0.01,0.18,0.02,0.28c0.01,0.09,0.04,0.18,0.08,0.26
	c0.07,0.14,0.17,0.25,0.3,0.33c0.13,0.08,0.28,0.14,0.44,0.18c0.16,0.04,0.32,0.06,0.49,0.07c0.16,0.01,0.31,0.01,0.43,0.01
	c0.13,0,0.27,0,0.44-0.01c0.17-0.01,0.33-0.03,0.49-0.08c0.16-0.04,0.31-0.1,0.45-0.19c0.14-0.08,0.24-0.2,0.3-0.35
	c0.04-0.08,0.06-0.16,0.06-0.25C31.9,30,31.9,29.92,31.9,29.83z"/>
<path d="M35.66,31.14c0,0.05-0.02,0.09-0.05,0.13c-0.03,0.04-0.07,0.05-0.12,0.05c-0.05,0-0.08-0.01-0.11-0.04l-2.73-2.38v2.23
	c0,0.05-0.02,0.09-0.05,0.13c-0.03,0.04-0.07,0.05-0.12,0.05c-0.05,0-0.08-0.02-0.12-0.05c-0.03-0.04-0.05-0.08-0.05-0.13v-2.62
	c0-0.05,0.02-0.09,0.05-0.13c0.03-0.04,0.07-0.06,0.12-0.06c0.04,0,0.07,0.01,0.1,0.04l2.73,2.38v-2.23c0-0.05,0.02-0.09,0.05-0.13
	c0.03-0.04,0.07-0.06,0.12-0.06c0.05,0,0.08,0.02,0.12,0.06c0.03,0.04,0.05,0.08,0.05,0.13V31.14z"/>
<path d="M39.33,31.14c0,0.05-0.02,0.09-0.05,0.13c-0.03,0.04-0.07,0.05-0.12,0.05c-0.05,0-0.08-0.02-0.12-0.05
	c-0.03-0.04-0.05-0.08-0.05-0.13v-0.69h-2.82v0.69c0,0.05-0.02,0.09-0.05,0.13c-0.03,0.04-0.07,0.05-0.12,0.05
	c-0.04,0-0.08-0.02-0.12-0.05c-0.03-0.04-0.05-0.08-0.05-0.13V29.8c0-0.3,0.05-0.55,0.14-0.74c0.09-0.19,0.22-0.34,0.38-0.45
	c0.16-0.11,0.34-0.18,0.55-0.22c0.21-0.04,0.44-0.06,0.68-0.06c0.24,0,0.46,0.02,0.68,0.06c0.21,0.04,0.4,0.11,0.55,0.22
	c0.16,0.11,0.28,0.26,0.38,0.45c0.09,0.19,0.14,0.44,0.14,0.74V31.14z M38.99,29.8c0-0.08,0-0.17-0.01-0.25
	c-0.01-0.08-0.03-0.17-0.05-0.25c-0.05-0.14-0.12-0.25-0.23-0.33c-0.1-0.08-0.22-0.14-0.34-0.18c-0.13-0.04-0.26-0.06-0.39-0.07
	c-0.14-0.01-0.26-0.02-0.38-0.02c-0.11,0-0.23,0.01-0.36,0.02c-0.13,0.01-0.26,0.04-0.39,0.07c-0.13,0.04-0.24,0.1-0.34,0.17
	c-0.1,0.08-0.18,0.18-0.23,0.31c-0.04,0.08-0.06,0.17-0.06,0.26c-0.01,0.09-0.01,0.18-0.01,0.27v0.28h2.82V29.8z"/>
<path d="M42.85,31.14c0,0.05-0.02,0.09-0.05,0.13c-0.03,0.04-0.07,0.05-0.12,0.05h-3.01c-0.05,0-0.08-0.02-0.12-0.05
	c-0.03-0.04-0.05-0.08-0.05-0.13v-2.62c0-0.05,0.02-0.09,0.05-0.13c0.03-0.04,0.07-0.06,0.12-0.06c0.04,0,0.08,0.02,0.12,0.06
	c0.03,0.04,0.05,0.08,0.05,0.13v2.43h2.84c0.05,0,0.08,0.02,0.12,0.06C42.83,31.05,42.85,31.09,42.85,31.14"/>
<path d="M49.23,30.49c0,0.18-0.03,0.32-0.1,0.43c-0.06,0.11-0.15,0.19-0.25,0.26c-0.1,0.06-0.22,0.1-0.35,0.12
	c-0.13,0.02-0.26,0.03-0.39,0.03h-2.37c-0.05,0-0.08-0.02-0.12-0.06c-0.03-0.04-0.05-0.08-0.05-0.13c0-0.05,0.02-0.09,0.05-0.13
	c0.03-0.04,0.07-0.06,0.12-0.06h2.33c0.08,0,0.16,0,0.26-0.01c0.09-0.01,0.18-0.02,0.25-0.05c0.08-0.03,0.14-0.07,0.19-0.14
	c0.05-0.06,0.08-0.15,0.08-0.27c0-0.04,0-0.08-0.01-0.12c-0.01-0.04-0.02-0.08-0.04-0.12c-0.03-0.06-0.08-0.1-0.14-0.13
	c-0.06-0.03-0.13-0.05-0.2-0.07c-0.07-0.01-0.14-0.02-0.21-0.03c-0.07,0-0.13,0-0.18,0h-1.38c-0.13,0-0.26-0.01-0.4-0.03
	c-0.13-0.02-0.26-0.06-0.36-0.12c-0.11-0.06-0.19-0.14-0.26-0.25c-0.07-0.11-0.1-0.26-0.1-0.44c0-0.18,0.03-0.32,0.1-0.43
	c0.06-0.11,0.15-0.2,0.25-0.26c0.1-0.06,0.22-0.1,0.35-0.12c0.13-0.02,0.26-0.03,0.39-0.03h2.37c0.05,0,0.09,0.02,0.12,0.06
	c0.04,0.04,0.05,0.08,0.05,0.13c0,0.05-0.02,0.09-0.05,0.13c-0.03,0.04-0.08,0.06-0.12,0.06h-2.33c-0.05,0-0.11,0-0.18,0
	c-0.07,0-0.14,0.01-0.21,0.02c-0.07,0.01-0.14,0.04-0.2,0.07c-0.06,0.03-0.11,0.08-0.14,0.13c-0.02,0.04-0.03,0.08-0.04,0.12
	c-0.01,0.04-0.01,0.08-0.01,0.12c0,0.12,0.03,0.21,0.08,0.27c0.05,0.06,0.12,0.11,0.19,0.14c0.08,0.03,0.16,0.04,0.26,0.05
	c0.09,0.01,0.18,0.01,0.26,0.01h1.38c0.13,0,0.26,0.01,0.4,0.03c0.13,0.02,0.25,0.06,0.36,0.12c0.11,0.06,0.19,0.14,0.26,0.26
	C49.19,30.17,49.23,30.31,49.23,30.49"/>
<path d="M52.96,31.14c0,0.05-0.02,0.09-0.05,0.13c-0.03,0.04-0.07,0.05-0.12,0.05h-3c-0.04,0-0.08-0.02-0.12-0.05
	c-0.03-0.04-0.05-0.08-0.05-0.13v-0.68h-0.39c-0.04,0-0.08-0.02-0.12-0.06c-0.03-0.04-0.05-0.08-0.05-0.13
	c0-0.05,0.02-0.09,0.05-0.13c0.03-0.04,0.07-0.05,0.12-0.05h0.39v-1.56c0-0.05,0.02-0.09,0.05-0.13c0.04-0.04,0.07-0.06,0.12-0.06h3
	c0.05,0,0.08,0.02,0.12,0.06c0.03,0.04,0.05,0.08,0.05,0.13c0,0.05-0.02,0.09-0.05,0.13c-0.03,0.04-0.07,0.05-0.12,0.05h-2.83v1.39
	h2.28c0.05,0,0.08,0.02,0.12,0.05c0.03,0.04,0.05,0.08,0.05,0.13c0,0.05-0.02,0.09-0.05,0.13c-0.03,0.04-0.07,0.06-0.12,0.06h-2.28
	v0.5h2.83c0.05,0,0.08,0.02,0.12,0.06C52.94,31.05,52.96,31.09,52.96,31.14"/>
<path d="M56.77,31.14c0,0.05-0.02,0.09-0.05,0.13c-0.03,0.04-0.07,0.06-0.12,0.06c-0.05,0-0.1-0.03-0.14-0.08l-0.78-1.23h-2.2v1.12
	c0,0.05-0.02,0.09-0.05,0.13c-0.03,0.04-0.07,0.06-0.12,0.06c-0.04,0-0.08-0.02-0.12-0.06c-0.03-0.04-0.05-0.08-0.05-0.13v-2.62
	c0-0.05,0.02-0.09,0.05-0.13c0.03-0.04,0.07-0.06,0.12-0.06c0.39,0,0.78,0,1.17,0c0.39,0,0.78,0,1.17,0c0.13,0,0.26,0.01,0.4,0.03
	c0.13,0.02,0.26,0.06,0.36,0.12c0.11,0.06,0.19,0.14,0.26,0.26c0.07,0.11,0.1,0.26,0.1,0.44c0,0.25-0.06,0.43-0.19,0.56
	c-0.13,0.13-0.3,0.21-0.51,0.25l0.67,1.04C56.76,31.07,56.77,31.11,56.77,31.14 M56.43,29.18c0-0.05,0-0.09-0.01-0.14
	c-0.01-0.04-0.02-0.09-0.05-0.12c-0.03-0.05-0.08-0.09-0.14-0.12c-0.06-0.03-0.13-0.05-0.2-0.06c-0.07-0.01-0.14-0.02-0.21-0.02
	c-0.07,0-0.13,0-0.18,0h-2.17v0.94h2.17c0.08,0,0.17,0,0.26-0.01c0.09-0.01,0.18-0.02,0.26-0.05c0.08-0.03,0.14-0.08,0.19-0.14
	C56.41,29.39,56.43,29.3,56.43,29.18z"/>
<path d="M60.81,28.52c0,0.05-0.01,0.08-0.03,0.11l-1.87,2.62c-0.03,0.05-0.08,0.07-0.13,0.07c-0.05,0-0.1-0.02-0.13-0.07l-1.86-2.62
	c-0.02-0.03-0.03-0.06-0.03-0.11c0-0.05,0.02-0.09,0.05-0.13c0.03-0.04,0.07-0.06,0.12-0.06c0.05,0,0.09,0.02,0.13,0.07l1.73,2.43
	l1.73-2.43c0.04-0.05,0.08-0.07,0.13-0.07c0.05,0,0.08,0.02,0.12,0.06C60.8,28.43,60.81,28.48,60.81,28.52"/>
<path d="M63.14,31.14c0,0.05-0.02,0.09-0.05,0.13c-0.03,0.04-0.07,0.05-0.12,0.05h-1.81c-0.05,0-0.08-0.02-0.12-0.05
	c-0.03-0.04-0.05-0.08-0.05-0.13c0-0.05,0.02-0.09,0.05-0.13c0.03-0.04,0.07-0.06,0.12-0.06h0.74V28.7h-0.74
	c-0.05,0-0.08-0.02-0.12-0.05c-0.03-0.04-0.05-0.08-0.05-0.13c0-0.05,0.02-0.09,0.05-0.13c0.03-0.04,0.07-0.06,0.12-0.06h1.81
	c0.05,0,0.08,0.02,0.12,0.06c0.03,0.04,0.05,0.08,0.05,0.13c0,0.05-0.02,0.09-0.05,0.13c-0.03,0.04-0.07,0.05-0.12,0.05h-0.74v2.25
	h0.74c0.05,0,0.08,0.02,0.12,0.06C63.12,31.05,63.14,31.09,63.14,31.14"/>
<path d="M67.16,30.75c0,0.03,0,0.06-0.01,0.08c-0.01,0.02-0.02,0.04-0.04,0.06c-0.02,0.03-0.05,0.05-0.08,0.07
	c-0.03,0.02-0.06,0.04-0.08,0.06c-0.11,0.07-0.22,0.13-0.35,0.17c-0.13,0.04-0.26,0.07-0.4,0.1c-0.13,0.02-0.27,0.04-0.41,0.05
	c-0.14,0.01-0.26,0.01-0.39,0.01c-0.13,0-0.27,0-0.42-0.01c-0.15-0.01-0.3-0.03-0.45-0.06c-0.15-0.03-0.3-0.07-0.44-0.13
	c-0.14-0.06-0.26-0.13-0.36-0.22c-0.16-0.15-0.27-0.3-0.33-0.48c-0.06-0.18-0.09-0.37-0.09-0.59c0-0.22,0.03-0.42,0.09-0.59
	c0.06-0.18,0.17-0.34,0.33-0.48c0.1-0.09,0.22-0.17,0.36-0.22c0.14-0.06,0.28-0.1,0.44-0.13c0.15-0.03,0.3-0.05,0.45-0.06
	c0.15-0.01,0.29-0.01,0.42-0.01c0.12,0,0.25,0,0.39,0.01c0.14,0.01,0.27,0.02,0.41,0.05c0.13,0.02,0.27,0.06,0.4,0.1
	c0.13,0.04,0.25,0.1,0.35,0.17c0.03,0.02,0.05,0.04,0.08,0.05c0.03,0.02,0.05,0.04,0.08,0.07c0.02,0.02,0.03,0.04,0.04,0.06
	c0.01,0.02,0.01,0.05,0.01,0.08c0,0.05-0.02,0.09-0.05,0.13c-0.03,0.04-0.07,0.06-0.12,0.06c-0.04,0-0.07-0.01-0.11-0.04
	c-0.05-0.04-0.1-0.08-0.15-0.11c-0.09-0.05-0.19-0.1-0.3-0.13c-0.11-0.03-0.23-0.06-0.35-0.08c-0.12-0.02-0.24-0.03-0.35-0.03
	c-0.12-0.01-0.23-0.01-0.33-0.01c-0.12,0-0.26,0-0.42,0.01c-0.16,0.01-0.32,0.03-0.48,0.07c-0.16,0.04-0.3,0.09-0.44,0.17
	c-0.13,0.08-0.24,0.18-0.31,0.31c-0.04,0.08-0.08,0.18-0.09,0.27c-0.02,0.1-0.02,0.19-0.02,0.29c0,0.1,0.01,0.2,0.02,0.29
	c0.02,0.1,0.05,0.19,0.09,0.27c0.07,0.13,0.17,0.23,0.31,0.31c0.13,0.08,0.28,0.13,0.44,0.17c0.16,0.04,0.31,0.06,0.48,0.07
	c0.16,0.01,0.3,0.01,0.42,0.01c0.1,0,0.21,0,0.33-0.01c0.12,0,0.23-0.02,0.35-0.03c0.12-0.02,0.23-0.04,0.35-0.08
	c0.11-0.03,0.21-0.08,0.3-0.13c0.06-0.03,0.11-0.07,0.15-0.11c0.03-0.03,0.07-0.04,0.11-0.04c0.04,0,0.08,0.02,0.12,0.06
	C67.14,30.65,67.16,30.7,67.16,30.75"/>
<path d="M70.89,31.14c0,0.05-0.02,0.09-0.05,0.13c-0.03,0.04-0.07,0.05-0.12,0.05h-3c-0.04,0-0.08-0.02-0.12-0.05
	c-0.03-0.04-0.05-0.08-0.05-0.13v-0.68h-0.39c-0.04,0-0.08-0.02-0.12-0.06C67.02,30.36,67,30.32,67,30.27
	c0-0.05,0.02-0.09,0.05-0.13c0.03-0.04,0.07-0.05,0.12-0.05h0.39v-1.56c0-0.05,0.02-0.09,0.05-0.13c0.04-0.04,0.07-0.06,0.12-0.06h3
	c0.05,0,0.08,0.02,0.12,0.06c0.03,0.04,0.05,0.08,0.05,0.13c0,0.05-0.02,0.09-0.05,0.13c-0.03,0.04-0.07,0.05-0.12,0.05h-2.83v1.39
	h2.28c0.05,0,0.08,0.02,0.12,0.05c0.03,0.04,0.05,0.08,0.05,0.13c0,0.05-0.02,0.09-0.05,0.13c-0.03,0.04-0.07,0.06-0.12,0.06h-2.28
	v0.5h2.83c0.05,0,0.08,0.02,0.12,0.06C70.88,31.05,70.89,31.09,70.89,31.14"/>
<path d="M74.7,30.49c0,0.18-0.03,0.32-0.1,0.43c-0.06,0.11-0.15,0.19-0.25,0.26c-0.1,0.06-0.22,0.1-0.35,0.12
	c-0.13,0.02-0.26,0.03-0.39,0.03h-2.37c-0.05,0-0.08-0.02-0.12-0.06c-0.03-0.04-0.05-0.08-0.05-0.13c0-0.05,0.02-0.09,0.05-0.13
	c0.03-0.04,0.07-0.06,0.12-0.06h2.34c0.08,0,0.16,0,0.26-0.01c0.09-0.01,0.18-0.02,0.25-0.05c0.08-0.03,0.14-0.07,0.19-0.14
	c0.05-0.06,0.08-0.15,0.08-0.27c0-0.04,0-0.08-0.01-0.12c-0.01-0.04-0.02-0.08-0.04-0.12c-0.03-0.06-0.08-0.1-0.14-0.13
	c-0.06-0.03-0.13-0.05-0.2-0.07c-0.07-0.01-0.14-0.02-0.21-0.03c-0.07,0-0.13,0-0.18,0H72.2c-0.13,0-0.26-0.01-0.4-0.03
	c-0.13-0.02-0.26-0.06-0.36-0.12c-0.11-0.06-0.19-0.14-0.26-0.25c-0.07-0.11-0.1-0.26-0.1-0.44c0-0.18,0.03-0.32,0.1-0.43
	c0.06-0.11,0.15-0.2,0.25-0.26c0.1-0.06,0.22-0.1,0.35-0.12c0.13-0.02,0.26-0.03,0.39-0.03h2.37c0.05,0,0.09,0.02,0.12,0.06
	c0.04,0.04,0.05,0.08,0.05,0.13c0,0.05-0.02,0.09-0.05,0.13c-0.04,0.04-0.08,0.06-0.12,0.06H72.2c-0.05,0-0.11,0-0.18,0
	c-0.07,0-0.14,0.01-0.21,0.02c-0.07,0.01-0.14,0.04-0.2,0.07c-0.06,0.03-0.11,0.08-0.14,0.13c-0.02,0.04-0.03,0.08-0.04,0.12
	c-0.01,0.04-0.01,0.08-0.01,0.12c0,0.12,0.03,0.21,0.08,0.27c0.05,0.06,0.12,0.11,0.19,0.14c0.08,0.03,0.16,0.04,0.26,0.05
	c0.09,0.01,0.18,0.01,0.26,0.01h1.38c0.13,0,0.26,0.01,0.4,0.03c0.13,0.02,0.25,0.06,0.36,0.12c0.11,0.06,0.19,0.14,0.26,0.26
	C74.67,30.17,74.7,30.31,74.7,30.49"/>
<path d="M80.84,31.14c0,0.05-0.02,0.09-0.05,0.13c-0.03,0.04-0.07,0.06-0.12,0.06c-0.02,0-0.07-0.02-0.15-0.06
	c-0.08-0.04-0.16-0.08-0.25-0.13c-0.09-0.05-0.17-0.1-0.24-0.14c-0.08-0.04-0.13-0.08-0.15-0.09c-0.19,0.12-0.39,0.22-0.6,0.3
	c-0.21,0.08-0.43,0.12-0.65,0.12c-0.09,0-0.19-0.01-0.29-0.02c-0.1-0.01-0.2-0.04-0.3-0.08c-0.1-0.04-0.19-0.09-0.27-0.14
	c-0.08-0.06-0.16-0.14-0.21-0.23c-0.03-0.05-0.06-0.1-0.07-0.17c-0.02-0.06-0.03-0.12-0.03-0.18c0-0.12,0.02-0.23,0.07-0.32
	c0.05-0.09,0.11-0.17,0.19-0.24c0.08-0.07,0.17-0.12,0.26-0.17c0.1-0.05,0.19-0.09,0.28-0.12c-0.07-0.08-0.13-0.17-0.19-0.27
	c-0.06-0.1-0.08-0.21-0.08-0.33c0-0.14,0.03-0.25,0.09-0.34c0.06-0.09,0.13-0.17,0.22-0.22c0.09-0.06,0.19-0.1,0.3-0.12
	c0.11-0.02,0.22-0.04,0.32-0.04c0.1,0,0.21,0.01,0.32,0.04c0.11,0.03,0.21,0.07,0.31,0.12c0.09,0.06,0.17,0.13,0.23,0.22
	c0.06,0.09,0.09,0.21,0.09,0.34c0,0.12-0.03,0.23-0.1,0.31c-0.06,0.09-0.14,0.16-0.23,0.22c-0.09,0.06-0.19,0.11-0.3,0.14
	c-0.11,0.04-0.2,0.07-0.29,0.1c0.15,0.12,0.3,0.23,0.45,0.34c0.15,0.11,0.3,0.21,0.46,0.31c0.14-0.11,0.27-0.22,0.39-0.34
	c0.03-0.03,0.06-0.06,0.08-0.09c0.03-0.03,0.06-0.06,0.08-0.09c0.02-0.02,0.04-0.03,0.06-0.04c0.02-0.01,0.04-0.02,0.07-0.02
	c0.05,0,0.08,0.02,0.12,0.06c0.03,0.04,0.05,0.08,0.05,0.13c0,0.03,0,0.05-0.01,0.07c-0.01,0.02-0.02,0.03-0.03,0.06
	c-0.02,0.03-0.05,0.07-0.09,0.11c-0.04,0.04-0.09,0.09-0.13,0.13c-0.05,0.05-0.1,0.09-0.14,0.13c-0.05,0.04-0.08,0.07-0.11,0.1
	c0.06,0.03,0.12,0.07,0.18,0.1c0.06,0.03,0.12,0.07,0.19,0.1c0.03,0.02,0.06,0.03,0.09,0.05c0.03,0.01,0.06,0.03,0.09,0.05
	C80.81,31.02,80.84,31.07,80.84,31.14 M79.54,30.69c-0.17-0.11-0.34-0.23-0.51-0.35c-0.17-0.12-0.33-0.25-0.48-0.39
	c-0.05,0.02-0.13,0.04-0.21,0.07c-0.09,0.03-0.17,0.07-0.25,0.11c-0.08,0.04-0.15,0.1-0.21,0.16c-0.06,0.06-0.09,0.13-0.09,0.22
	c0,0.06,0.02,0.11,0.05,0.15c0.04,0.05,0.08,0.08,0.13,0.12c0.05,0.03,0.1,0.06,0.15,0.08c0.05,0.02,0.1,0.04,0.14,0.05
	c0.06,0.02,0.12,0.03,0.18,0.04c0.06,0,0.12,0.01,0.19,0.01c0.16,0,0.31-0.02,0.47-0.07C79.25,30.83,79.4,30.77,79.54,30.69z
	 M79.53,29.06c0-0.07-0.02-0.13-0.07-0.18c-0.05-0.05-0.1-0.08-0.16-0.11c-0.06-0.03-0.13-0.04-0.2-0.05
	c-0.07-0.01-0.13-0.01-0.18-0.01c-0.05,0-0.11,0-0.18,0.01c-0.07,0.01-0.14,0.03-0.2,0.05c-0.06,0.03-0.12,0.06-0.16,0.11
	c-0.04,0.05-0.07,0.1-0.07,0.18c0,0.04,0.01,0.09,0.03,0.13c0.02,0.05,0.05,0.09,0.08,0.13c0.03,0.04,0.07,0.08,0.1,0.12
	c0.04,0.04,0.07,0.07,0.09,0.09c0.03-0.01,0.07-0.02,0.13-0.04c0.06-0.01,0.12-0.03,0.18-0.05c0.07-0.02,0.14-0.04,0.2-0.07
	c0.07-0.03,0.13-0.06,0.19-0.09c0.06-0.03,0.1-0.07,0.14-0.11C79.51,29.14,79.53,29.1,79.53,29.06z"/>
<path d="M87.08,29.86c0,0.3-0.05,0.55-0.14,0.74c-0.09,0.19-0.22,0.34-0.38,0.45c-0.16,0.11-0.34,0.18-0.55,0.22
	c-0.21,0.04-0.44,0.06-0.68,0.06c-0.24,0-0.47-0.02-0.68-0.06c-0.21-0.04-0.4-0.11-0.55-0.22c-0.16-0.11-0.28-0.26-0.38-0.45
	c-0.09-0.19-0.14-0.44-0.14-0.74c0-0.05,0.02-0.09,0.05-0.13c0.03-0.04,0.07-0.05,0.12-0.05c0.04,0,0.08,0.02,0.12,0.05
	c0.03,0.04,0.05,0.08,0.05,0.13c0,0.09,0,0.18,0.01,0.26c0.01,0.09,0.03,0.17,0.06,0.25c0.05,0.13,0.12,0.24,0.23,0.32
	c0.1,0.08,0.22,0.14,0.35,0.18c0.13,0.04,0.26,0.07,0.39,0.08c0.13,0.01,0.26,0.02,0.37,0.02c0.11,0,0.23-0.01,0.37-0.02
	c0.13-0.01,0.27-0.04,0.39-0.08c0.13-0.04,0.24-0.1,0.35-0.18c0.1-0.08,0.18-0.18,0.23-0.32c0.03-0.08,0.05-0.16,0.06-0.25
	c0.01-0.09,0.01-0.18,0.01-0.26v-1.33c0-0.05,0.02-0.09,0.05-0.13c0.03-0.04,0.07-0.06,0.12-0.06c0.04,0,0.08,0.02,0.12,0.06
	c0.03,0.04,0.05,0.08,0.05,0.13V29.86z"/>
<path d="M91.44,29.84c0,0.22-0.03,0.42-0.09,0.59c-0.06,0.18-0.17,0.34-0.33,0.48c-0.1,0.09-0.22,0.17-0.36,0.22
	c-0.14,0.06-0.29,0.1-0.44,0.13c-0.15,0.03-0.31,0.05-0.46,0.06c-0.15,0.01-0.29,0.01-0.41,0.01c-0.12,0-0.26,0-0.41-0.01
	c-0.15-0.01-0.3-0.03-0.45-0.06c-0.15-0.03-0.3-0.07-0.44-0.13c-0.14-0.05-0.26-0.13-0.36-0.22c-0.16-0.14-0.27-0.3-0.33-0.48
	c-0.06-0.18-0.09-0.37-0.09-0.59c0-0.22,0.03-0.42,0.09-0.59c0.06-0.18,0.17-0.34,0.33-0.48c0.1-0.09,0.22-0.16,0.36-0.22
	c0.14-0.05,0.28-0.1,0.44-0.13c0.15-0.03,0.3-0.05,0.45-0.06c0.15-0.01,0.29-0.02,0.41-0.02c0.12,0,0.26,0.01,0.41,0.02
	c0.15,0.01,0.3,0.03,0.46,0.06c0.15,0.03,0.3,0.07,0.44,0.13c0.14,0.06,0.26,0.13,0.36,0.22c0.16,0.14,0.27,0.3,0.33,0.48
	C91.41,29.42,91.44,29.62,91.44,29.84 M91.1,29.83c0-0.08,0-0.17-0.01-0.25c-0.01-0.08-0.03-0.17-0.06-0.25
	c-0.06-0.15-0.16-0.26-0.3-0.35c-0.14-0.08-0.29-0.15-0.45-0.19c-0.16-0.04-0.33-0.07-0.49-0.08c-0.17-0.01-0.31-0.01-0.44-0.01
	c-0.12,0-0.26,0-0.43,0.01c-0.16,0.01-0.33,0.03-0.49,0.07c-0.16,0.04-0.31,0.1-0.44,0.18c-0.13,0.08-0.24,0.19-0.3,0.33
	c-0.04,0.08-0.06,0.17-0.08,0.26c-0.01,0.09-0.02,0.18-0.02,0.27c0,0.09,0.01,0.18,0.02,0.28c0.01,0.09,0.04,0.18,0.08,0.26
	c0.07,0.14,0.17,0.25,0.3,0.33c0.13,0.08,0.28,0.14,0.44,0.18c0.16,0.04,0.32,0.06,0.49,0.07c0.16,0.01,0.31,0.01,0.43,0.01
	c0.13,0,0.27,0,0.44-0.01c0.17-0.01,0.33-0.03,0.49-0.08c0.16-0.04,0.31-0.1,0.45-0.19c0.14-0.08,0.24-0.2,0.3-0.35
	c0.04-0.08,0.06-0.16,0.06-0.25C91.1,30,91.1,29.92,91.1,29.83z"/>
<path d="M95.14,30.49c0,0.18-0.03,0.32-0.1,0.43c-0.06,0.11-0.15,0.19-0.25,0.25c-0.1,0.06-0.22,0.1-0.35,0.12
	c-0.13,0.02-0.26,0.03-0.39,0.03h-2.37c-0.04,0-0.08-0.02-0.12-0.06c-0.03-0.04-0.05-0.08-0.05-0.13v-2.62
	c0-0.05,0.02-0.09,0.05-0.13c0.03-0.04,0.07-0.06,0.12-0.06h0.56c0.2,0,0.4,0,0.61,0c0.21,0,0.41,0,0.61,0h0.56
	c0.13,0,0.26,0.01,0.4,0.03c0.13,0.02,0.26,0.06,0.36,0.12c0.11,0.06,0.19,0.14,0.26,0.26c0.07,0.11,0.1,0.26,0.1,0.44
	c0,0.14-0.02,0.26-0.07,0.37c-0.05,0.11-0.12,0.21-0.23,0.28c0.11,0.07,0.18,0.17,0.23,0.28C95.12,30.23,95.14,30.36,95.14,30.49
	 M94.81,29.18c0-0.05,0-0.09-0.01-0.14c-0.01-0.04-0.02-0.09-0.05-0.12c-0.03-0.05-0.08-0.09-0.14-0.12
	c-0.06-0.03-0.13-0.05-0.2-0.06c-0.07-0.01-0.14-0.02-0.21-0.02c-0.07,0-0.13,0-0.18,0h-2.17v0.94h2.17c0.08,0,0.17,0,0.26-0.01
	c0.09-0.01,0.18-0.02,0.25-0.05c0.08-0.03,0.14-0.08,0.19-0.14C94.78,29.39,94.81,29.3,94.81,29.18z M94.81,30.49
	c0-0.05,0-0.09-0.01-0.13c-0.01-0.04-0.02-0.08-0.05-0.12c-0.03-0.05-0.08-0.09-0.14-0.12c-0.06-0.03-0.13-0.05-0.2-0.06
	c-0.07-0.01-0.14-0.02-0.21-0.02c-0.07,0-0.13,0-0.18,0h-2.17v0.94h2.17c0.08,0,0.17,0,0.26-0.01c0.09-0.01,0.18-0.02,0.25-0.05
	c0.08-0.03,0.14-0.07,0.19-0.14C94.78,30.7,94.81,30.61,94.81,30.49z"/>
<path d="M101.38,31.14c0,0.05-0.02,0.09-0.05,0.13c-0.03,0.04-0.07,0.05-0.12,0.05c-0.05,0-0.08-0.02-0.12-0.05
	c-0.03-0.04-0.05-0.08-0.05-0.13v-0.69h-2.82v0.69c0,0.05-0.02,0.09-0.05,0.13c-0.03,0.04-0.07,0.05-0.12,0.05
	c-0.04,0-0.08-0.02-0.12-0.05c-0.03-0.04-0.05-0.08-0.05-0.13V29.8c0-0.3,0.05-0.55,0.14-0.74c0.09-0.19,0.22-0.34,0.38-0.45
	c0.16-0.11,0.34-0.18,0.55-0.22c0.21-0.04,0.44-0.06,0.68-0.06c0.24,0,0.46,0.02,0.68,0.06c0.21,0.04,0.4,0.11,0.55,0.22
	c0.16,0.11,0.28,0.26,0.38,0.45c0.09,0.19,0.14,0.44,0.14,0.74V31.14z M101.05,29.8c0-0.08,0-0.17-0.01-0.25
	c-0.01-0.08-0.03-0.17-0.05-0.25c-0.05-0.14-0.12-0.25-0.23-0.33c-0.1-0.08-0.22-0.14-0.35-0.18c-0.13-0.04-0.26-0.06-0.39-0.07
	c-0.14-0.01-0.26-0.02-0.38-0.02c-0.11,0-0.23,0.01-0.36,0.02c-0.13,0.01-0.26,0.04-0.39,0.07c-0.13,0.04-0.24,0.1-0.35,0.17
	c-0.1,0.08-0.18,0.18-0.23,0.31c-0.04,0.08-0.06,0.17-0.06,0.26c-0.01,0.09-0.01,0.18-0.01,0.27v0.28h2.82V29.8z"/>
<path d="M105.19,30.49c0,0.18-0.03,0.32-0.1,0.43c-0.06,0.11-0.15,0.19-0.25,0.26c-0.1,0.06-0.22,0.1-0.35,0.12
	c-0.13,0.02-0.26,0.03-0.39,0.03h-2.37c-0.05,0-0.08-0.02-0.12-0.06c-0.03-0.04-0.05-0.08-0.05-0.13c0-0.05,0.02-0.09,0.05-0.13
	c0.03-0.04,0.07-0.06,0.12-0.06h2.33c0.08,0,0.16,0,0.26-0.01c0.09-0.01,0.18-0.02,0.25-0.05c0.08-0.03,0.14-0.07,0.19-0.14
	c0.05-0.06,0.08-0.15,0.08-0.27c0-0.04,0-0.08-0.01-0.12c-0.01-0.04-0.02-0.08-0.04-0.12c-0.03-0.06-0.08-0.1-0.14-0.13
	c-0.06-0.03-0.13-0.05-0.2-0.07c-0.07-0.01-0.14-0.02-0.21-0.03c-0.07,0-0.13,0-0.18,0h-1.38c-0.13,0-0.26-0.01-0.4-0.03
	c-0.13-0.02-0.26-0.06-0.36-0.12c-0.11-0.06-0.19-0.14-0.26-0.25c-0.07-0.11-0.1-0.26-0.1-0.44c0-0.18,0.03-0.32,0.1-0.43
	c0.06-0.11,0.15-0.2,0.25-0.26c0.1-0.06,0.22-0.1,0.35-0.12c0.13-0.02,0.26-0.03,0.39-0.03h2.37c0.05,0,0.09,0.02,0.12,0.06
	c0.04,0.04,0.05,0.08,0.05,0.13c0,0.05-0.02,0.09-0.05,0.13c-0.04,0.04-0.08,0.06-0.12,0.06h-2.33c-0.05,0-0.11,0-0.18,0
	c-0.07,0-0.14,0.01-0.21,0.02c-0.07,0.01-0.14,0.04-0.2,0.07c-0.06,0.03-0.11,0.08-0.14,0.13c-0.02,0.04-0.03,0.08-0.04,0.12
	c-0.01,0.04-0.01,0.08-0.01,0.12c0,0.12,0.03,0.21,0.08,0.27c0.05,0.06,0.12,0.11,0.19,0.14c0.08,0.03,0.16,0.04,0.26,0.05
	c0.09,0.01,0.18,0.01,0.26,0.01h1.38c0.13,0,0.26,0.01,0.4,0.03c0.13,0.02,0.25,0.06,0.36,0.12c0.11,0.06,0.19,0.14,0.26,0.26
	C105.15,30.17,105.19,30.31,105.19,30.49"/>
<path d="M108.99,30.49c0,0.18-0.03,0.32-0.1,0.43c-0.06,0.11-0.15,0.19-0.25,0.26c-0.1,0.06-0.22,0.1-0.35,0.12
	c-0.13,0.02-0.26,0.03-0.39,0.03h-2.37c-0.05,0-0.08-0.02-0.12-0.06c-0.03-0.04-0.05-0.08-0.05-0.13c0-0.05,0.02-0.09,0.05-0.13
	c0.03-0.04,0.07-0.06,0.12-0.06h2.34c0.08,0,0.16,0,0.26-0.01c0.09-0.01,0.18-0.02,0.25-0.05c0.08-0.03,0.14-0.07,0.19-0.14
	c0.05-0.06,0.08-0.15,0.08-0.27c0-0.04,0-0.08-0.01-0.12c-0.01-0.04-0.02-0.08-0.04-0.12c-0.03-0.06-0.08-0.1-0.14-0.13
	c-0.06-0.03-0.13-0.05-0.2-0.07c-0.07-0.01-0.14-0.02-0.21-0.03c-0.07,0-0.13,0-0.18,0h-1.38c-0.13,0-0.26-0.01-0.4-0.03
	c-0.13-0.02-0.25-0.06-0.36-0.12c-0.11-0.06-0.19-0.14-0.26-0.25c-0.07-0.11-0.1-0.26-0.1-0.44c0-0.18,0.03-0.32,0.1-0.43
	c0.06-0.11,0.15-0.2,0.25-0.26c0.1-0.06,0.22-0.1,0.35-0.12c0.13-0.02,0.26-0.03,0.39-0.03h2.37c0.05,0,0.09,0.02,0.12,0.06
	c0.04,0.04,0.05,0.08,0.05,0.13c0,0.05-0.02,0.09-0.05,0.13c-0.04,0.04-0.08,0.06-0.12,0.06h-2.33c-0.05,0-0.11,0-0.18,0
	c-0.07,0-0.14,0.01-0.21,0.02c-0.07,0.01-0.14,0.04-0.2,0.07c-0.06,0.03-0.11,0.08-0.14,0.13c-0.02,0.04-0.03,0.08-0.04,0.12
	c-0.01,0.04-0.01,0.08-0.01,0.12c0,0.12,0.03,0.21,0.08,0.27c0.05,0.06,0.12,0.11,0.19,0.14c0.08,0.03,0.16,0.04,0.26,0.05
	c0.09,0.01,0.18,0.01,0.26,0.01h1.38c0.13,0,0.26,0.01,0.4,0.03c0.13,0.02,0.26,0.06,0.36,0.12c0.11,0.06,0.19,0.14,0.26,0.26
	C108.95,30.17,108.99,30.31,108.99,30.49"/>
<path d="M111.31,31.14c0,0.05-0.02,0.09-0.05,0.13c-0.03,0.04-0.07,0.05-0.12,0.05h-1.81c-0.05,0-0.08-0.02-0.12-0.05
	c-0.03-0.04-0.05-0.08-0.05-0.13c0-0.05,0.02-0.09,0.05-0.13c0.03-0.04,0.07-0.06,0.12-0.06h0.74V28.7h-0.74
	c-0.05,0-0.08-0.02-0.12-0.05c-0.03-0.04-0.05-0.08-0.05-0.13c0-0.05,0.02-0.09,0.05-0.13c0.03-0.04,0.07-0.06,0.12-0.06h1.81
	c0.05,0,0.08,0.02,0.12,0.06c0.03,0.04,0.05,0.08,0.05,0.13c0,0.05-0.02,0.09-0.05,0.13c-0.03,0.04-0.07,0.05-0.12,0.05h-0.74v2.25
	h0.74c0.05,0,0.08,0.02,0.12,0.06C111.3,31.05,111.31,31.09,111.31,31.14"/>
<path d="M115.12,30.49c0,0.18-0.03,0.32-0.1,0.43c-0.06,0.11-0.15,0.19-0.25,0.26c-0.1,0.06-0.22,0.1-0.35,0.12
	c-0.13,0.02-0.26,0.03-0.39,0.03h-2.37c-0.05,0-0.08-0.02-0.12-0.06c-0.03-0.04-0.05-0.08-0.05-0.13c0-0.05,0.02-0.09,0.05-0.13
	c0.03-0.04,0.07-0.06,0.12-0.06H114c0.08,0,0.16,0,0.26-0.01c0.09-0.01,0.18-0.02,0.25-0.05c0.08-0.03,0.14-0.07,0.19-0.14
	c0.05-0.06,0.08-0.15,0.08-0.27c0-0.04,0-0.08-0.01-0.12c-0.01-0.04-0.02-0.08-0.04-0.12c-0.03-0.06-0.08-0.1-0.14-0.13
	c-0.06-0.03-0.13-0.05-0.2-0.07c-0.07-0.01-0.14-0.02-0.21-0.03c-0.07,0-0.13,0-0.18,0h-1.38c-0.13,0-0.26-0.01-0.4-0.03
	c-0.13-0.02-0.26-0.06-0.36-0.12c-0.11-0.06-0.19-0.14-0.26-0.25c-0.07-0.11-0.1-0.26-0.1-0.44c0-0.18,0.03-0.32,0.1-0.43
	c0.06-0.11,0.15-0.2,0.25-0.26c0.1-0.06,0.22-0.1,0.35-0.12c0.13-0.02,0.26-0.03,0.39-0.03h2.37c0.05,0,0.09,0.02,0.12,0.06
	c0.04,0.04,0.05,0.08,0.05,0.13c0,0.05-0.02,0.09-0.05,0.13c-0.03,0.04-0.08,0.06-0.12,0.06h-2.33c-0.05,0-0.11,0-0.18,0
	c-0.07,0-0.14,0.01-0.21,0.02c-0.07,0.01-0.14,0.04-0.2,0.07c-0.06,0.03-0.11,0.08-0.14,0.13c-0.02,0.04-0.03,0.08-0.04,0.12
	c-0.01,0.04-0.01,0.08-0.01,0.12c0,0.12,0.03,0.21,0.08,0.27c0.05,0.06,0.12,0.11,0.19,0.14c0.08,0.03,0.16,0.04,0.26,0.05
	c0.09,0.01,0.18,0.01,0.26,0.01H114c0.13,0,0.26,0.01,0.4,0.03c0.13,0.02,0.25,0.06,0.36,0.12c0.11,0.06,0.19,0.14,0.26,0.26
	C115.09,30.17,115.12,30.31,115.12,30.49"/>
<path d="M118.63,28.52c0,0.05-0.02,0.09-0.05,0.13c-0.03,0.04-0.07,0.05-0.12,0.05h-1.33v2.44c0,0.05-0.02,0.09-0.05,0.13
	c-0.03,0.04-0.07,0.05-0.11,0.05c-0.04,0-0.08-0.02-0.12-0.05c-0.03-0.04-0.05-0.08-0.05-0.13V28.7h-1.33
	c-0.05,0-0.08-0.02-0.12-0.05c-0.03-0.04-0.05-0.08-0.05-0.13c0-0.05,0.02-0.09,0.05-0.13c0.03-0.04,0.07-0.06,0.12-0.06h3
	c0.05,0,0.08,0.02,0.12,0.06C118.62,28.43,118.63,28.47,118.63,28.52"/>
<path d="M121.92,31.14c0,0.05-0.02,0.09-0.05,0.13c-0.03,0.04-0.07,0.05-0.12,0.05c-0.05,0-0.08-0.02-0.12-0.05
	c-0.03-0.04-0.05-0.08-0.05-0.13v-0.69h-2.82v0.69c0,0.05-0.02,0.09-0.05,0.13c-0.03,0.04-0.07,0.05-0.12,0.05
	c-0.04,0-0.08-0.02-0.12-0.05c-0.03-0.04-0.05-0.08-0.05-0.13V29.8c0-0.3,0.05-0.55,0.14-0.74c0.09-0.19,0.22-0.34,0.38-0.45
	c0.16-0.11,0.34-0.18,0.55-0.22c0.21-0.04,0.44-0.06,0.68-0.06c0.24,0,0.46,0.02,0.68,0.06c0.21,0.04,0.4,0.11,0.55,0.22
	c0.16,0.11,0.28,0.26,0.38,0.45c0.09,0.19,0.14,0.44,0.14,0.74V31.14z M121.59,29.8c0-0.08,0-0.17-0.01-0.25
	c-0.01-0.08-0.03-0.17-0.05-0.25c-0.05-0.14-0.12-0.25-0.23-0.33c-0.1-0.08-0.22-0.14-0.35-0.18c-0.13-0.04-0.26-0.06-0.39-0.07
	c-0.14-0.01-0.26-0.02-0.38-0.02c-0.11,0-0.23,0.01-0.37,0.02c-0.13,0.01-0.26,0.04-0.39,0.07c-0.13,0.04-0.24,0.1-0.35,0.17
	c-0.1,0.08-0.18,0.18-0.23,0.31c-0.04,0.08-0.06,0.17-0.06,0.26c-0.01,0.09-0.01,0.18-0.01,0.27v0.28h2.82V29.8z"/>
<path d="M125.44,31.14c0,0.05-0.02,0.09-0.05,0.13c-0.03,0.04-0.07,0.05-0.12,0.05c-0.05,0-0.08-0.01-0.11-0.04l-2.73-2.38v2.23
	c0,0.05-0.02,0.09-0.05,0.13c-0.03,0.04-0.07,0.05-0.12,0.05c-0.05,0-0.08-0.02-0.12-0.05c-0.03-0.04-0.05-0.08-0.05-0.13v-2.62
	c0-0.05,0.02-0.09,0.05-0.13c0.03-0.04,0.07-0.06,0.12-0.06c0.04,0,0.07,0.01,0.1,0.04l2.73,2.38v-2.23c0-0.05,0.02-0.09,0.05-0.13
	c0.03-0.04,0.07-0.06,0.12-0.06c0.05,0,0.08,0.02,0.12,0.06c0.03,0.04,0.05,0.08,0.05,0.13V31.14z"/>
<path d="M129.46,30.75c0,0.03-0.01,0.06-0.01,0.08c-0.01,0.02-0.02,0.04-0.04,0.06c-0.02,0.03-0.05,0.05-0.08,0.07
	c-0.03,0.02-0.06,0.04-0.08,0.06c-0.11,0.07-0.22,0.13-0.35,0.17c-0.13,0.04-0.26,0.07-0.4,0.1c-0.13,0.02-0.27,0.04-0.4,0.05
	c-0.14,0.01-0.26,0.01-0.39,0.01c-0.13,0-0.27,0-0.42-0.01c-0.15-0.01-0.3-0.03-0.45-0.06c-0.15-0.03-0.3-0.07-0.44-0.13
	c-0.14-0.06-0.26-0.13-0.36-0.22c-0.16-0.15-0.27-0.3-0.33-0.48c-0.06-0.18-0.09-0.37-0.09-0.59c0-0.22,0.03-0.42,0.09-0.59
	c0.06-0.18,0.17-0.34,0.33-0.48c0.1-0.09,0.22-0.17,0.36-0.22c0.14-0.06,0.28-0.1,0.44-0.13c0.15-0.03,0.3-0.05,0.45-0.06
	c0.15-0.01,0.29-0.01,0.42-0.01c0.12,0,0.25,0,0.39,0.01c0.14,0.01,0.27,0.02,0.4,0.05c0.13,0.02,0.27,0.06,0.4,0.1
	c0.13,0.04,0.25,0.1,0.35,0.17c0.03,0.02,0.05,0.04,0.08,0.05c0.03,0.02,0.05,0.04,0.08,0.07c0.02,0.02,0.03,0.04,0.04,0.06
	c0.01,0.02,0.01,0.05,0.01,0.08c0,0.05-0.02,0.09-0.05,0.13c-0.03,0.04-0.07,0.06-0.12,0.06c-0.04,0-0.07-0.01-0.11-0.04
	c-0.05-0.04-0.1-0.08-0.15-0.11c-0.09-0.05-0.19-0.1-0.3-0.13c-0.11-0.03-0.23-0.06-0.35-0.08c-0.12-0.02-0.24-0.03-0.35-0.03
	c-0.12-0.01-0.23-0.01-0.33-0.01c-0.12,0-0.26,0-0.42,0.01c-0.16,0.01-0.32,0.03-0.48,0.07c-0.16,0.04-0.3,0.09-0.44,0.17
	c-0.13,0.08-0.24,0.18-0.31,0.31c-0.04,0.08-0.08,0.18-0.09,0.27c-0.02,0.1-0.02,0.19-0.02,0.29c0,0.1,0.01,0.2,0.02,0.29
	c0.02,0.1,0.05,0.19,0.09,0.27c0.07,0.13,0.17,0.23,0.31,0.31c0.13,0.08,0.28,0.13,0.44,0.17c0.16,0.04,0.31,0.06,0.48,0.07
	c0.16,0.01,0.3,0.01,0.42,0.01c0.1,0,0.21,0,0.33-0.01c0.12,0,0.23-0.02,0.35-0.03c0.12-0.02,0.23-0.04,0.35-0.08
	c0.11-0.03,0.21-0.08,0.3-0.13c0.06-0.03,0.11-0.07,0.15-0.11c0.04-0.03,0.07-0.04,0.11-0.04c0.04,0,0.08,0.02,0.12,0.06
	C129.44,30.65,129.46,30.7,129.46,30.75"/>
<path d="M133.19,31.14c0,0.05-0.02,0.09-0.05,0.13c-0.03,0.04-0.07,0.05-0.12,0.05h-3c-0.04,0-0.08-0.02-0.12-0.05
	c-0.03-0.04-0.05-0.08-0.05-0.13v-0.68h-0.39c-0.04,0-0.08-0.02-0.12-0.06c-0.03-0.04-0.05-0.08-0.05-0.13
	c0-0.05,0.02-0.09,0.05-0.13c0.03-0.04,0.07-0.05,0.12-0.05h0.39v-1.56c0-0.05,0.02-0.09,0.05-0.13c0.04-0.04,0.07-0.06,0.12-0.06h3
	c0.05,0,0.08,0.02,0.12,0.06c0.03,0.04,0.05,0.08,0.05,0.13c0,0.05-0.02,0.09-0.05,0.13c-0.03,0.04-0.07,0.05-0.12,0.05h-2.83v1.39
	h2.28c0.05,0,0.08,0.02,0.12,0.05c0.03,0.04,0.05,0.08,0.05,0.13c0,0.05-0.02,0.09-0.05,0.13c-0.03,0.04-0.07,0.06-0.12,0.06h-2.28
	v0.5h2.83c0.05,0,0.08,0.02,0.12,0.06C133.18,31.05,133.19,31.09,133.19,31.14"/>
</svg>
