<?xml version="1.0" encoding="utf-8"?>
<!-- Generator: Adobe Illustrator 26.0.3, SVG Export Plug-In . SVG Version: 6.00 Build 0)  -->
<svg version="1.1" id="Layer_1" xmlns="http://www.w3.org/2000/svg" xmlns:xlink="http://www.w3.org/1999/xlink" x="0px" y="0px"
	 viewBox="0 0 40.75 43.32" style="enable-background:new 0 0 40.75 43.32;" xml:space="preserve">
<style type="text/css">
	.st0{fill:#191415;}
	.st1{fill:#FD1317;}
	.st2{fill:none;stroke:#000000;stroke-width:0.2011;stroke-miterlimit:2.6131;}
</style>
<g>
	<polygon class="st0" points="17.32,32.88 31.59,32.88 31.59,17.58 	"/>
	<polygon class="st1" points="17.32,2.26 3.04,2.26 3.04,17.55 	"/>
	<path class="st1" d="M15.63,18.24c0,0,11.84-20.98,22.26-11c0,0-8.88-0.44-14.19,3.56C18.39,14.81,15.63,18.24,15.63,18.24"/>
	<polygon class="st0" points="17.32,32.88 3.04,32.88 3.04,17.58 	"/>
	<path class="st0" d="M15.63,18.24c0,0,4.65-7.12,8.52-9.02C24.14,9.22,16.52,16.83,15.63,18.24"/>
	<path d="M29.87,37.77h0.37v0.58c0.15-0.22,0.32-0.38,0.5-0.49c0.18-0.11,0.38-0.16,0.6-0.16c0.22,0,0.41,0.06,0.58,0.18
		c0.17,0.12,0.3,0.29,0.38,0.49c0.08,0.21,0.12,0.53,0.12,0.96v1.65h-0.37v-1.53c0-0.37-0.01-0.62-0.04-0.74
		c-0.05-0.21-0.13-0.37-0.25-0.48c-0.12-0.11-0.29-0.16-0.48-0.16c-0.23,0-0.43,0.08-0.61,0.25c-0.18,0.16-0.3,0.37-0.36,0.61
		c-0.04,0.16-0.05,0.45-0.05,0.87v1.18h-0.37V37.77z M27.65,38.1c-0.31,0-0.58,0.13-0.81,0.38c-0.22,0.25-0.34,0.56-0.34,0.92
		c0,0.23,0.05,0.45,0.15,0.65c0.1,0.2,0.24,0.35,0.42,0.46c0.17,0.11,0.37,0.16,0.57,0.16c0.21,0,0.4-0.05,0.57-0.16
		c0.17-0.11,0.31-0.26,0.42-0.46c0.1-0.2,0.15-0.42,0.15-0.65c0-0.36-0.11-0.66-0.34-0.92C28.23,38.22,27.96,38.1,27.65,38.1z
		 M27.65,37.69c0.45,0,0.82,0.18,1.12,0.54c0.27,0.33,0.4,0.71,0.4,1.16c0,0.45-0.14,0.84-0.43,1.17c-0.28,0.33-0.65,0.5-1.1,0.5
		c-0.45,0-0.82-0.17-1.1-0.5c-0.29-0.33-0.43-0.73-0.43-1.17c0-0.44,0.13-0.83,0.4-1.15C26.83,37.87,27.2,37.69,27.65,37.69z
		 M25.11,37.77h0.37v3.21h-0.37V37.77z M25.3,36.45c0.09,0,0.16,0.03,0.22,0.1c0.06,0.07,0.09,0.15,0.09,0.24
		c0,0.09-0.03,0.17-0.09,0.24c-0.06,0.07-0.13,0.1-0.22,0.1c-0.08,0-0.16-0.03-0.22-0.1c-0.06-0.07-0.09-0.15-0.09-0.24
		c0-0.09,0.03-0.18,0.09-0.24C25.14,36.48,25.21,36.45,25.3,36.45z M23.63,36.57H24v1.2h0.59v0.36H24v2.85h-0.37v-2.85h-0.51v-0.36
		h0.51V36.57z M20.95,38.09c-0.21,0-0.4,0.06-0.58,0.17c-0.18,0.11-0.32,0.27-0.42,0.47c-0.1,0.2-0.16,0.42-0.16,0.65
		c0,0.22,0.05,0.44,0.16,0.65c0.11,0.21,0.25,0.37,0.42,0.48c0.18,0.11,0.37,0.17,0.57,0.17c0.2,0,0.4-0.06,0.58-0.17
		c0.18-0.11,0.33-0.27,0.42-0.46c0.1-0.19,0.15-0.41,0.15-0.65c0-0.37-0.11-0.68-0.33-0.93C21.55,38.21,21.27,38.09,20.95,38.09z
		 M22.45,37.77v3.21h-0.37v-0.55c-0.16,0.21-0.33,0.37-0.53,0.47c-0.2,0.1-0.41,0.16-0.64,0.16c-0.41,0-0.77-0.16-1.06-0.49
		c-0.29-0.33-0.44-0.73-0.44-1.2c0-0.46,0.15-0.86,0.44-1.18c0.29-0.33,0.65-0.49,1.06-0.49c0.24,0,0.46,0.06,0.65,0.17
		c0.19,0.11,0.36,0.28,0.51,0.5v-0.59H22.45z M17.18,38.09c-0.21,0-0.4,0.06-0.58,0.17c-0.18,0.11-0.32,0.27-0.42,0.47
		c-0.1,0.2-0.16,0.42-0.16,0.65c0,0.22,0.05,0.44,0.16,0.65c0.11,0.21,0.25,0.37,0.42,0.48c0.18,0.11,0.37,0.17,0.57,0.17
		c0.2,0,0.4-0.06,0.58-0.17c0.18-0.11,0.33-0.27,0.42-0.46c0.1-0.19,0.15-0.41,0.15-0.65c0-0.37-0.11-0.68-0.33-0.93
		C17.78,38.21,17.51,38.09,17.18,38.09z M18.69,36.53v4.45h-0.37v-0.55c-0.16,0.21-0.33,0.37-0.53,0.47
		c-0.2,0.1-0.41,0.16-0.64,0.16c-0.41,0-0.77-0.16-1.06-0.49c-0.29-0.33-0.44-0.73-0.44-1.2c0-0.46,0.15-0.86,0.44-1.18
		c0.29-0.33,0.65-0.49,1.06-0.49c0.24,0,0.46,0.06,0.65,0.17c0.19,0.11,0.36,0.28,0.51,0.5v-1.83H18.69z M12.42,37.77h0.37v0.58
		c0.15-0.22,0.32-0.38,0.5-0.49c0.18-0.11,0.38-0.16,0.6-0.16c0.22,0,0.41,0.06,0.58,0.18c0.17,0.12,0.3,0.29,0.38,0.49
		c0.08,0.21,0.12,0.53,0.12,0.96v1.65H14.6v-1.53c0-0.37-0.01-0.62-0.04-0.74c-0.05-0.21-0.13-0.37-0.25-0.48
		c-0.12-0.11-0.29-0.16-0.48-0.16c-0.23,0-0.43,0.08-0.61,0.25c-0.18,0.16-0.3,0.37-0.36,0.61c-0.04,0.16-0.05,0.45-0.05,0.87v1.18
		h-0.37V37.77z M9.02,37.77H9.4v1.5c0,0.37,0.02,0.62,0.05,0.75c0.05,0.2,0.16,0.35,0.31,0.47c0.15,0.11,0.33,0.17,0.54,0.17
		c0.21,0,0.39-0.06,0.53-0.17c0.15-0.11,0.25-0.26,0.3-0.44c0.04-0.12,0.06-0.39,0.06-0.79v-1.5h0.39v1.57c0,0.44-0.05,0.78-0.14,1
		c-0.09,0.22-0.24,0.4-0.42,0.53c-0.19,0.13-0.43,0.19-0.71,0.19c-0.29,0-0.52-0.06-0.71-0.19c-0.19-0.13-0.33-0.3-0.43-0.53
		c-0.09-0.23-0.14-0.57-0.14-1.02V37.77z M6.85,38.1c-0.31,0-0.58,0.13-0.81,0.38c-0.22,0.25-0.34,0.56-0.34,0.92
		c0,0.23,0.05,0.45,0.15,0.65c0.1,0.2,0.24,0.35,0.42,0.46c0.17,0.11,0.37,0.16,0.57,0.16c0.21,0,0.4-0.05,0.57-0.16
		c0.17-0.11,0.31-0.26,0.42-0.46c0.1-0.2,0.15-0.42,0.15-0.65c0-0.36-0.11-0.66-0.34-0.92C7.43,38.22,7.16,38.1,6.85,38.1z
		 M6.85,37.69c0.45,0,0.82,0.18,1.12,0.54c0.27,0.33,0.4,0.71,0.4,1.16c0,0.45-0.14,0.84-0.43,1.17c-0.28,0.33-0.65,0.5-1.1,0.5
		c-0.45,0-0.82-0.17-1.1-0.5c-0.29-0.33-0.43-0.73-0.43-1.17c0-0.44,0.13-0.83,0.4-1.15C6.02,37.87,6.4,37.69,6.85,37.69z
		 M2.86,36.64h1.98v0.42H3.26v1.36h1.59v0.42H3.26v2.13h-0.4V36.64z"/>
	<path class="st2" d="M29.87,37.77h0.37v0.58c0.15-0.22,0.32-0.38,0.5-0.49c0.18-0.11,0.38-0.16,0.6-0.16
		c0.22,0,0.41,0.06,0.58,0.18c0.17,0.12,0.3,0.29,0.38,0.49c0.08,0.21,0.12,0.53,0.12,0.96v1.65h-0.37v-1.53
		c0-0.37-0.01-0.62-0.04-0.74c-0.05-0.21-0.13-0.37-0.25-0.48c-0.12-0.11-0.29-0.16-0.48-0.16c-0.23,0-0.43,0.08-0.61,0.25
		c-0.18,0.16-0.3,0.37-0.36,0.61c-0.04,0.16-0.05,0.45-0.05,0.87v1.18h-0.37V37.77z M27.65,38.1c-0.31,0-0.58,0.13-0.81,0.38
		c-0.22,0.25-0.34,0.56-0.34,0.92c0,0.23,0.05,0.45,0.15,0.65c0.1,0.2,0.24,0.35,0.42,0.46c0.17,0.11,0.37,0.16,0.57,0.16
		c0.21,0,0.4-0.05,0.57-0.16c0.17-0.11,0.31-0.26,0.42-0.46c0.1-0.2,0.15-0.42,0.15-0.65c0-0.36-0.11-0.66-0.34-0.92
		C28.23,38.22,27.96,38.1,27.65,38.1z M27.65,37.69c0.45,0,0.82,0.18,1.12,0.54c0.27,0.33,0.4,0.71,0.4,1.16
		c0,0.45-0.14,0.84-0.43,1.17c-0.28,0.33-0.65,0.5-1.1,0.5c-0.45,0-0.82-0.17-1.1-0.5c-0.29-0.33-0.43-0.73-0.43-1.17
		c0-0.44,0.13-0.83,0.4-1.15C26.83,37.87,27.2,37.69,27.65,37.69z M25.11,37.77h0.37v3.21h-0.37V37.77z M25.3,36.45
		c0.09,0,0.16,0.03,0.22,0.1c0.06,0.07,0.09,0.15,0.09,0.24c0,0.09-0.03,0.17-0.09,0.24c-0.06,0.07-0.13,0.1-0.22,0.1
		c-0.08,0-0.16-0.03-0.22-0.1c-0.06-0.07-0.09-0.15-0.09-0.24c0-0.09,0.03-0.18,0.09-0.24C25.14,36.48,25.21,36.45,25.3,36.45z
		 M23.63,36.57H24v1.2h0.59v0.36H24v2.85h-0.37v-2.85h-0.51v-0.36h0.51V36.57z M20.95,38.09c-0.21,0-0.4,0.06-0.58,0.17
		c-0.18,0.11-0.32,0.27-0.42,0.47c-0.1,0.2-0.16,0.42-0.16,0.65c0,0.22,0.05,0.44,0.16,0.65c0.11,0.21,0.25,0.37,0.42,0.48
		c0.18,0.11,0.37,0.17,0.57,0.17c0.2,0,0.4-0.06,0.58-0.17c0.18-0.11,0.33-0.27,0.42-0.46c0.1-0.19,0.15-0.41,0.15-0.65
		c0-0.37-0.11-0.68-0.33-0.93C21.55,38.21,21.27,38.09,20.95,38.09z M22.45,37.77v3.21h-0.37v-0.55c-0.16,0.21-0.33,0.37-0.53,0.47
		c-0.2,0.1-0.41,0.16-0.64,0.16c-0.41,0-0.77-0.16-1.06-0.49c-0.29-0.33-0.44-0.73-0.44-1.2c0-0.46,0.15-0.86,0.44-1.18
		c0.29-0.33,0.65-0.49,1.06-0.49c0.24,0,0.46,0.06,0.65,0.17c0.19,0.11,0.36,0.28,0.51,0.5v-0.59H22.45z M17.18,38.09
		c-0.21,0-0.4,0.06-0.58,0.17c-0.18,0.11-0.32,0.27-0.42,0.47c-0.1,0.2-0.16,0.42-0.16,0.65c0,0.22,0.05,0.44,0.16,0.65
		c0.11,0.21,0.25,0.37,0.42,0.48c0.18,0.11,0.37,0.17,0.57,0.17c0.2,0,0.4-0.06,0.58-0.17c0.18-0.11,0.33-0.27,0.42-0.46
		c0.1-0.19,0.15-0.41,0.15-0.65c0-0.37-0.11-0.68-0.33-0.93C17.78,38.21,17.51,38.09,17.18,38.09z M18.69,36.53v4.45h-0.37v-0.55
		c-0.16,0.21-0.33,0.37-0.53,0.47c-0.2,0.1-0.41,0.16-0.64,0.16c-0.41,0-0.77-0.16-1.06-0.49c-0.29-0.33-0.44-0.73-0.44-1.2
		c0-0.46,0.15-0.86,0.44-1.18c0.29-0.33,0.65-0.49,1.06-0.49c0.24,0,0.46,0.06,0.65,0.17c0.19,0.11,0.36,0.28,0.51,0.5v-1.83H18.69z
		 M12.42,37.77h0.37v0.58c0.15-0.22,0.32-0.38,0.5-0.49c0.18-0.11,0.38-0.16,0.6-0.16c0.22,0,0.41,0.06,0.58,0.18
		c0.17,0.12,0.3,0.29,0.38,0.49c0.08,0.21,0.12,0.53,0.12,0.96v1.65H14.6v-1.53c0-0.37-0.01-0.62-0.04-0.74
		c-0.05-0.21-0.13-0.37-0.25-0.48c-0.12-0.11-0.29-0.16-0.48-0.16c-0.23,0-0.43,0.08-0.61,0.25c-0.18,0.16-0.3,0.37-0.36,0.61
		c-0.04,0.16-0.05,0.45-0.05,0.87v1.18h-0.37V37.77z M9.02,37.77H9.4v1.5c0,0.37,0.02,0.62,0.05,0.75c0.05,0.2,0.16,0.35,0.31,0.47
		c0.15,0.11,0.33,0.17,0.54,0.17c0.21,0,0.39-0.06,0.53-0.17c0.15-0.11,0.25-0.26,0.3-0.44c0.04-0.12,0.06-0.39,0.06-0.79v-1.5h0.39
		v1.57c0,0.44-0.05,0.78-0.14,1c-0.09,0.22-0.24,0.4-0.42,0.53c-0.19,0.13-0.43,0.19-0.71,0.19c-0.29,0-0.52-0.06-0.71-0.19
		c-0.19-0.13-0.33-0.3-0.43-0.53c-0.09-0.23-0.14-0.57-0.14-1.02V37.77z M6.85,38.1c-0.31,0-0.58,0.13-0.81,0.38
		c-0.22,0.25-0.34,0.56-0.34,0.92c0,0.23,0.05,0.45,0.15,0.65c0.1,0.2,0.24,0.35,0.42,0.46c0.17,0.11,0.37,0.16,0.57,0.16
		c0.21,0,0.4-0.05,0.57-0.16c0.17-0.11,0.31-0.26,0.42-0.46c0.1-0.2,0.15-0.42,0.15-0.65c0-0.36-0.11-0.66-0.34-0.92
		C7.43,38.22,7.16,38.1,6.85,38.1z M6.85,37.69c0.45,0,0.82,0.18,1.12,0.54c0.27,0.33,0.4,0.71,0.4,1.16c0,0.45-0.14,0.84-0.43,1.17
		c-0.28,0.33-0.65,0.5-1.1,0.5c-0.45,0-0.82-0.17-1.1-0.5c-0.29-0.33-0.43-0.73-0.43-1.17c0-0.44,0.13-0.83,0.4-1.15
		C6.02,37.87,6.4,37.69,6.85,37.69z M2.86,36.64h1.98v0.42H3.26v1.36h1.59v0.42H3.26v2.13h-0.4V36.64z"/>
</g>
</svg>
