<?xml version="1.0" encoding="utf-8"?>
<!-- Generator: Adobe Illustrator 26.0.3, SVG Export Plug-In . SVG Version: 6.00 Build 0)  -->
<svg version="1.1" id="Layer_1" xmlns="http://www.w3.org/2000/svg" xmlns:xlink="http://www.w3.org/1999/xlink" x="0px" y="0px"
	 viewBox="0 0 172.31 43.32" style="enable-background:new 0 0 172.31 43.32;" xml:space="preserve">
<style type="text/css">
	.st0{fill:#191415;}
	.st1{fill:#FD1317;}
	.st2{fill:none;stroke:#000000;stroke-width:0.2011;stroke-miterlimit:2.6131;}
</style>
<g>
	<polygon class="st0" points="16.61,32.88 30.88,32.88 30.88,17.58 	"/>
	<polygon class="st1" points="16.61,2.26 2.34,2.26 2.34,17.55 	"/>
	<path class="st1" d="M14.92,18.24c0,0,11.84-20.98,22.26-11c0,0-8.88-0.44-14.19,3.56C17.68,14.81,14.92,18.24,14.92,18.24"/>
	<polygon class="st0" points="16.61,32.88 2.34,32.88 2.34,17.58 	"/>
	<path class="st0" d="M14.92,18.24c0,0,4.65-7.12,8.52-9.02C23.44,9.22,15.81,16.83,14.92,18.24"/>
	<path d="M41.3,9.99h3.08v14.56H41.3V9.99z M44.85,15.32l1.39-2.48l5.09,11.71h-3.26l-2.58-6.09l-0.64,1.03V15.32z M51.06,9.99
		l-3.2,5.04l-1.24-2.78l1.22-2.26H51.06z"/>
	<path d="M55.35,24.55H52.5V9.99h2.85V24.55z M58.04,24.55l-2.36-8.11V9.99h0.87l2.28,10l2.23-10h0.89v6.56l-2.44,8H58.04z
		 M65.17,24.55h-2.88V9.99h2.88V24.55z"/>
	<path d="M75.54,24.55h-3.06V9.99h3.06V24.55z M76.01,9.99H80v2.45h-3.98V9.99z M76.01,15.76h3.75v2.43h-3.75V15.76z"/>
	<path d="M81.07,13.74c0-2.61,1.47-3.96,4.4-4.06v2.37c-0.86,0.11-1.29,0.63-1.29,1.54v7.34c0,0.94,0.43,1.46,1.29,1.56v2.35
		c-2.93-0.13-4.4-1.62-4.4-4.45V13.74z M87.34,13.59c0-0.94-0.44-1.46-1.32-1.54V9.66c3,0.03,4.5,1.41,4.5,4.16v6.66
		c0,2.84-1.5,4.3-4.5,4.38v-2.35c0.88-0.09,1.32-0.61,1.32-1.56V13.59z"/>
	<path d="M96.47,24.85c-2.93-0.11-4.4-1.59-4.4-4.45V9.99h3.11v10.94c0,0.94,0.43,1.46,1.29,1.56V24.85z M97,22.49
		c0.43-0.05,0.77-0.19,1-0.43c0.23-0.24,0.34-0.62,0.34-1.13V9.99h3.15v10.48c-0.01,2.84-1.51,4.3-4.49,4.38V22.49z"/>
	<path d="M105.95,24.55h-2.85V9.99h2.85V24.55z M109.64,23.58l-3.31-7.37v-5.07l3.31,7.43V23.58z M112.88,24.55h-2.9V9.99h2.9V24.55
		z"/>
	<path d="M117.57,9.99v14.56 M117.57,24.55h-3.03V9.99h3.03V24.55z M118.04,9.99h1.57c2.83,0,4.25,1.37,4.25,4.1v6.31
		c0,2.77-1.43,4.15-4.28,4.15h-1.54v-2.48h1.09c0.57,0,0.98-0.1,1.23-0.31c0.25-0.21,0.38-0.53,0.38-0.97v-6.82
		c0-0.53-0.13-0.91-0.39-1.14c-0.26-0.23-0.68-0.35-1.25-0.35h-1.05V9.99z"/>
	<polygon points="132.03,9.99 135.39,24.55 132.2,24.55 131.58,21.5 128.93,21.5 129.37,19.07 131.13,19.07 130.09,13.15 
		127.75,24.55 124.73,24.55 128.1,9.99 	"/>
	<path d="M143.59,12.44h-9.44V9.99h9.44V12.44z M137.34,13.01h3.05v11.55h-3.05V13.01z"/>
	<rect x="144.63" y="9.99" width="3.13" height="14.56"/>
	<path d="M149.35,13.74c0-2.61,1.47-3.96,4.4-4.06v2.37c-0.86,0.11-1.29,0.63-1.29,1.54v7.34c0,0.94,0.43,1.46,1.29,1.56v2.35
		c-2.93-0.13-4.4-1.62-4.4-4.45V13.74z M155.63,13.59c0-0.94-0.44-1.46-1.32-1.54V9.66c3,0.03,4.5,1.41,4.5,4.16v6.66
		c0,2.84-1.5,4.3-4.5,4.38v-2.35c0.88-0.09,1.32-0.61,1.32-1.56V13.59z"/>
	<path d="M163.23,24.55h-2.85V9.99h2.85V24.55z M166.91,23.58l-3.31-7.37v-5.07l3.31,7.43V23.58z M170.15,24.55h-2.9V9.99h2.9V24.55
		z"/>
	<path d="M44.56,31.14c0,0.05-0.02,0.09-0.05,0.13c-0.03,0.04-0.07,0.05-0.12,0.05h-3c-0.04,0-0.08-0.02-0.12-0.05
		c-0.03-0.04-0.05-0.08-0.05-0.13v-0.68h-0.39c-0.04,0-0.08-0.02-0.12-0.06c-0.03-0.04-0.05-0.08-0.05-0.13
		c0-0.05,0.02-0.09,0.05-0.13c0.03-0.04,0.07-0.05,0.12-0.05h0.39v-1.56c0-0.05,0.02-0.09,0.05-0.13c0.04-0.04,0.07-0.06,0.12-0.06
		h3c0.05,0,0.08,0.02,0.12,0.06c0.03,0.04,0.05,0.08,0.05,0.13c0,0.05-0.02,0.09-0.05,0.13c-0.03,0.04-0.07,0.05-0.12,0.05h-2.83
		v1.39h2.28c0.05,0,0.08,0.02,0.12,0.05c0.03,0.04,0.05,0.08,0.05,0.13c0,0.05-0.02,0.09-0.05,0.13c-0.03,0.04-0.07,0.06-0.12,0.06
		h-2.28v0.5h2.83c0.05,0,0.08,0.02,0.12,0.06C44.55,31.05,44.56,31.09,44.56,31.14"/>
	<path d="M48.38,29.82c0,0.33-0.06,0.59-0.18,0.79c-0.12,0.2-0.28,0.35-0.48,0.46c-0.19,0.1-0.41,0.17-0.66,0.21
		c-0.24,0.03-0.49,0.05-0.73,0.05h-1.41c-0.04,0-0.08-0.02-0.12-0.06c-0.03-0.04-0.05-0.08-0.05-0.13v-2.62
		c0-0.05,0.02-0.09,0.05-0.13c0.03-0.04,0.07-0.06,0.12-0.06h1.41c0.24,0,0.48,0.02,0.72,0.05c0.24,0.03,0.46,0.1,0.66,0.21
		c0.2,0.11,0.36,0.26,0.48,0.45C48.31,29.23,48.38,29.49,48.38,29.82 M48.04,29.82c0-0.09-0.01-0.18-0.02-0.27
		c-0.01-0.09-0.04-0.17-0.07-0.26c-0.07-0.14-0.17-0.24-0.3-0.32c-0.13-0.08-0.28-0.14-0.43-0.18c-0.16-0.04-0.31-0.06-0.47-0.07
		c-0.16-0.01-0.3-0.01-0.42-0.01h-1.25v2.25h1.25c0.12,0,0.27-0.01,0.43-0.02c0.16-0.01,0.32-0.04,0.47-0.08
		c0.15-0.04,0.29-0.1,0.42-0.18c0.13-0.08,0.23-0.19,0.3-0.34c0.04-0.08,0.06-0.17,0.08-0.26C48.03,30,48.04,29.91,48.04,29.82z"/>
	<path d="M52.04,29.86c0,0.3-0.05,0.55-0.14,0.74c-0.09,0.19-0.22,0.34-0.38,0.45c-0.16,0.11-0.34,0.18-0.55,0.22
		c-0.21,0.04-0.44,0.06-0.68,0.06c-0.24,0-0.46-0.02-0.68-0.06c-0.21-0.04-0.4-0.11-0.55-0.22c-0.16-0.11-0.28-0.26-0.38-0.45
		c-0.09-0.19-0.14-0.44-0.14-0.74v-1.33c0-0.05,0.02-0.09,0.05-0.13c0.03-0.04,0.07-0.06,0.12-0.06c0.04,0,0.08,0.02,0.12,0.06
		c0.03,0.04,0.05,0.08,0.05,0.13v1.33c0,0.09,0,0.18,0.01,0.26c0.01,0.09,0.03,0.17,0.06,0.25c0.05,0.13,0.12,0.24,0.23,0.32
		c0.1,0.08,0.22,0.14,0.35,0.18c0.13,0.04,0.26,0.07,0.39,0.08c0.13,0.01,0.26,0.02,0.37,0.02c0.11,0,0.23-0.01,0.37-0.02
		c0.13-0.01,0.27-0.04,0.39-0.08c0.13-0.04,0.24-0.1,0.35-0.18c0.1-0.08,0.18-0.18,0.23-0.32c0.03-0.08,0.05-0.16,0.06-0.25
		c0.01-0.09,0.01-0.18,0.01-0.26v-1.33c0-0.05,0.02-0.09,0.05-0.13c0.03-0.04,0.07-0.06,0.12-0.06c0.04,0,0.08,0.02,0.12,0.06
		c0.03,0.04,0.05,0.08,0.05,0.13V29.86z"/>
	<path d="M56.06,30.75c0,0.03,0,0.06-0.01,0.08c-0.01,0.02-0.02,0.04-0.04,0.06c-0.02,0.03-0.05,0.05-0.08,0.07
		c-0.03,0.02-0.06,0.04-0.08,0.06c-0.11,0.07-0.22,0.13-0.35,0.17c-0.13,0.04-0.26,0.07-0.4,0.1c-0.13,0.02-0.27,0.04-0.41,0.05
		c-0.14,0.01-0.26,0.01-0.39,0.01c-0.13,0-0.27,0-0.42-0.01c-0.15-0.01-0.3-0.03-0.45-0.06c-0.15-0.03-0.3-0.07-0.44-0.13
		c-0.14-0.06-0.26-0.13-0.36-0.22c-0.16-0.15-0.27-0.3-0.33-0.48c-0.06-0.18-0.09-0.37-0.09-0.59c0-0.22,0.03-0.42,0.09-0.59
		c0.06-0.18,0.17-0.34,0.33-0.48c0.1-0.09,0.22-0.17,0.36-0.22c0.14-0.06,0.28-0.1,0.44-0.13c0.15-0.03,0.3-0.05,0.45-0.06
		c0.15-0.01,0.29-0.01,0.42-0.01c0.12,0,0.25,0,0.39,0.01c0.14,0.01,0.27,0.02,0.41,0.05c0.13,0.02,0.27,0.06,0.4,0.1
		c0.13,0.04,0.25,0.1,0.35,0.17c0.03,0.02,0.05,0.04,0.08,0.05c0.03,0.02,0.05,0.04,0.08,0.07c0.02,0.02,0.03,0.04,0.04,0.06
		c0.01,0.02,0.01,0.05,0.01,0.08c0,0.05-0.02,0.09-0.05,0.13c-0.03,0.04-0.07,0.06-0.12,0.06c-0.04,0-0.07-0.01-0.11-0.04
		c-0.05-0.04-0.1-0.08-0.15-0.11c-0.09-0.05-0.19-0.1-0.3-0.13c-0.11-0.03-0.23-0.06-0.35-0.08c-0.12-0.02-0.24-0.03-0.35-0.03
		c-0.12-0.01-0.23-0.01-0.33-0.01c-0.12,0-0.26,0-0.42,0.01c-0.16,0.01-0.32,0.03-0.48,0.07c-0.16,0.04-0.3,0.09-0.44,0.17
		c-0.13,0.08-0.24,0.18-0.31,0.31c-0.04,0.08-0.08,0.18-0.09,0.27c-0.02,0.1-0.02,0.19-0.02,0.29c0,0.1,0.01,0.2,0.02,0.29
		c0.02,0.1,0.05,0.19,0.09,0.27c0.07,0.13,0.17,0.23,0.31,0.31c0.13,0.08,0.28,0.13,0.44,0.17c0.16,0.04,0.31,0.06,0.48,0.07
		c0.16,0.01,0.3,0.01,0.42,0.01c0.1,0,0.21,0,0.33-0.01c0.12,0,0.23-0.02,0.35-0.03c0.12-0.02,0.23-0.04,0.35-0.08
		c0.11-0.03,0.21-0.08,0.3-0.13c0.06-0.03,0.11-0.07,0.15-0.11c0.04-0.03,0.07-0.04,0.11-0.04c0.04,0,0.08,0.02,0.12,0.06
		C56.04,30.65,56.06,30.7,56.06,30.75"/>
	<path d="M59.73,31.14c0,0.05-0.02,0.09-0.05,0.13c-0.03,0.04-0.07,0.05-0.12,0.05c-0.05,0-0.08-0.02-0.12-0.05
		c-0.03-0.04-0.05-0.08-0.05-0.13v-0.69h-2.82v0.69c0,0.05-0.02,0.09-0.05,0.13c-0.03,0.04-0.07,0.05-0.12,0.05
		c-0.04,0-0.08-0.02-0.12-0.05c-0.03-0.04-0.05-0.08-0.05-0.13V29.8c0-0.3,0.05-0.55,0.14-0.74c0.09-0.19,0.22-0.34,0.38-0.45
		c0.16-0.11,0.34-0.18,0.55-0.22c0.21-0.04,0.44-0.06,0.68-0.06c0.24,0,0.46,0.02,0.68,0.06c0.21,0.04,0.4,0.11,0.55,0.22
		c0.16,0.11,0.28,0.26,0.38,0.45c0.09,0.19,0.14,0.44,0.14,0.74V31.14z M59.39,29.8c0-0.08,0-0.17-0.01-0.25
		c-0.01-0.08-0.03-0.17-0.05-0.25c-0.05-0.14-0.12-0.25-0.23-0.33c-0.1-0.08-0.22-0.14-0.35-0.18c-0.13-0.04-0.26-0.06-0.39-0.07
		c-0.14-0.01-0.26-0.02-0.38-0.02c-0.11,0-0.23,0.01-0.36,0.02c-0.13,0.01-0.26,0.04-0.39,0.07c-0.13,0.04-0.24,0.1-0.35,0.17
		c-0.1,0.08-0.18,0.18-0.23,0.31c-0.04,0.08-0.06,0.17-0.06,0.26c-0.01,0.09-0.01,0.18-0.01,0.27v0.28h2.82V29.8z"/>
	<path d="M62.86,28.52c0,0.05-0.02,0.09-0.05,0.13c-0.03,0.04-0.07,0.05-0.12,0.05h-1.33v2.44c0,0.05-0.02,0.09-0.05,0.13
		c-0.03,0.04-0.07,0.05-0.11,0.05c-0.04,0-0.08-0.02-0.12-0.05c-0.03-0.04-0.05-0.08-0.05-0.13V28.7h-1.33
		c-0.05,0-0.08-0.02-0.12-0.05c-0.03-0.04-0.05-0.08-0.05-0.13c0-0.05,0.02-0.09,0.05-0.13c0.03-0.04,0.07-0.06,0.12-0.06h3
		c0.05,0,0.08,0.02,0.12,0.06C62.84,28.43,62.86,28.47,62.86,28.52"/>
	<path d="M65.19,31.14c0,0.05-0.02,0.09-0.05,0.13c-0.03,0.04-0.07,0.05-0.12,0.05h-1.81c-0.05,0-0.08-0.02-0.12-0.05
		c-0.03-0.04-0.05-0.08-0.05-0.13c0-0.05,0.02-0.09,0.05-0.13c0.03-0.04,0.07-0.06,0.12-0.06h0.74V28.7h-0.74
		c-0.05,0-0.08-0.02-0.12-0.05c-0.03-0.04-0.05-0.08-0.05-0.13c0-0.05,0.02-0.09,0.05-0.13c0.03-0.04,0.07-0.06,0.12-0.06h1.81
		c0.05,0,0.08,0.02,0.12,0.06c0.03,0.04,0.05,0.08,0.05,0.13c0,0.05-0.02,0.09-0.05,0.13c-0.03,0.04-0.07,0.05-0.12,0.05h-0.74v2.25
		h0.74c0.05,0,0.08,0.02,0.12,0.06C65.17,31.05,65.19,31.09,65.19,31.14"/>
	<path d="M69.16,29.84c0,0.22-0.03,0.42-0.09,0.59c-0.06,0.18-0.17,0.34-0.33,0.48c-0.1,0.09-0.22,0.17-0.36,0.22
		c-0.14,0.06-0.29,0.1-0.44,0.13c-0.15,0.03-0.31,0.05-0.46,0.06c-0.15,0.01-0.29,0.01-0.41,0.01s-0.26,0-0.41-0.01
		c-0.15-0.01-0.3-0.03-0.46-0.06c-0.15-0.03-0.3-0.07-0.44-0.13c-0.14-0.05-0.26-0.13-0.36-0.22c-0.16-0.14-0.27-0.3-0.33-0.48
		c-0.06-0.18-0.09-0.37-0.09-0.59c0-0.22,0.03-0.42,0.09-0.59c0.06-0.18,0.17-0.34,0.33-0.48c0.1-0.09,0.22-0.16,0.36-0.22
		c0.14-0.05,0.28-0.1,0.44-0.13c0.15-0.03,0.3-0.05,0.46-0.06c0.15-0.01,0.29-0.02,0.41-0.02s0.26,0.01,0.41,0.02
		c0.15,0.01,0.3,0.03,0.46,0.06c0.15,0.03,0.3,0.07,0.44,0.13c0.14,0.06,0.26,0.13,0.36,0.22c0.16,0.14,0.27,0.3,0.33,0.48
		C69.13,29.42,69.16,29.62,69.16,29.84 M68.83,29.83c0-0.08,0-0.17-0.01-0.25c-0.01-0.08-0.03-0.17-0.06-0.25
		c-0.06-0.15-0.16-0.26-0.3-0.35c-0.14-0.08-0.29-0.15-0.45-0.19c-0.16-0.04-0.33-0.07-0.49-0.08c-0.17-0.01-0.31-0.01-0.44-0.01
		c-0.12,0-0.26,0-0.43,0.01c-0.16,0.01-0.33,0.03-0.49,0.07c-0.16,0.04-0.31,0.1-0.44,0.18c-0.13,0.08-0.24,0.19-0.3,0.33
		c-0.04,0.08-0.06,0.17-0.08,0.26c-0.01,0.09-0.02,0.18-0.02,0.27c0,0.09,0.01,0.18,0.02,0.28c0.01,0.09,0.04,0.18,0.08,0.26
		c0.07,0.14,0.17,0.25,0.3,0.33c0.13,0.08,0.28,0.14,0.44,0.18c0.16,0.04,0.32,0.06,0.49,0.07c0.16,0.01,0.31,0.01,0.43,0.01
		c0.13,0,0.27,0,0.44-0.01c0.17-0.01,0.33-0.03,0.49-0.08c0.16-0.04,0.31-0.1,0.45-0.19c0.14-0.08,0.24-0.2,0.3-0.35
		c0.04-0.08,0.06-0.16,0.06-0.25C68.82,30,68.83,29.92,68.83,29.83z"/>
	<path d="M72.59,31.14c0,0.05-0.02,0.09-0.05,0.13c-0.03,0.04-0.07,0.05-0.12,0.05c-0.05,0-0.08-0.01-0.11-0.04l-2.73-2.38v2.23
		c0,0.05-0.02,0.09-0.05,0.13c-0.03,0.04-0.07,0.05-0.12,0.05c-0.05,0-0.08-0.02-0.12-0.05c-0.03-0.04-0.05-0.08-0.05-0.13v-2.62
		c0-0.05,0.02-0.09,0.05-0.13c0.03-0.04,0.07-0.06,0.12-0.06c0.04,0,0.07,0.01,0.1,0.04l2.73,2.38v-2.23c0-0.05,0.02-0.09,0.05-0.13
		c0.03-0.04,0.07-0.06,0.12-0.06c0.05,0,0.08,0.02,0.12,0.06c0.03,0.04,0.05,0.08,0.05,0.13V31.14z"/>
	<path d="M76.25,31.14c0,0.05-0.02,0.09-0.05,0.13c-0.03,0.04-0.07,0.05-0.12,0.05c-0.05,0-0.08-0.02-0.12-0.05
		c-0.03-0.04-0.05-0.08-0.05-0.13v-0.69H73.1v0.69c0,0.05-0.02,0.09-0.05,0.13c-0.03,0.04-0.07,0.05-0.12,0.05
		c-0.04,0-0.08-0.02-0.12-0.05c-0.03-0.04-0.05-0.08-0.05-0.13V29.8c0-0.3,0.05-0.55,0.14-0.74c0.09-0.19,0.22-0.34,0.38-0.45
		c0.16-0.11,0.34-0.18,0.55-0.22c0.21-0.04,0.44-0.06,0.68-0.06c0.24,0,0.46,0.02,0.68,0.06c0.21,0.04,0.4,0.11,0.55,0.22
		c0.16,0.11,0.28,0.26,0.38,0.45c0.09,0.19,0.14,0.44,0.14,0.74V31.14z M75.92,29.8c0-0.08,0-0.17-0.01-0.25
		c-0.01-0.08-0.03-0.17-0.05-0.25c-0.05-0.14-0.12-0.25-0.23-0.33c-0.1-0.08-0.22-0.14-0.34-0.18c-0.13-0.04-0.26-0.06-0.39-0.07
		c-0.14-0.01-0.26-0.02-0.38-0.02c-0.11,0-0.23,0.01-0.36,0.02c-0.13,0.01-0.26,0.04-0.39,0.07c-0.13,0.04-0.24,0.1-0.34,0.17
		c-0.1,0.08-0.18,0.18-0.23,0.31c-0.04,0.08-0.06,0.17-0.06,0.26c-0.01,0.09-0.01,0.18-0.01,0.27v0.28h2.82V29.8z"/>
	<path d="M79.77,31.14c0,0.05-0.02,0.09-0.05,0.13c-0.03,0.04-0.07,0.05-0.12,0.05H76.6c-0.05,0-0.08-0.02-0.12-0.05
		c-0.03-0.04-0.05-0.08-0.05-0.13v-2.62c0-0.05,0.02-0.09,0.05-0.13c0.03-0.04,0.07-0.06,0.12-0.06c0.04,0,0.08,0.02,0.12,0.06
		c0.03,0.04,0.05,0.08,0.05,0.13v2.43h2.84c0.05,0,0.08,0.02,0.12,0.06C79.76,31.05,79.77,31.09,79.77,31.14"/>
	<path d="M86.15,30.49c0,0.18-0.03,0.32-0.1,0.43c-0.06,0.11-0.15,0.19-0.25,0.26c-0.1,0.06-0.22,0.1-0.35,0.12
		c-0.13,0.02-0.26,0.03-0.39,0.03h-2.37c-0.05,0-0.08-0.02-0.12-0.06c-0.03-0.04-0.05-0.08-0.05-0.13c0-0.05,0.02-0.09,0.05-0.13
		c0.03-0.04,0.07-0.06,0.12-0.06h2.33c0.08,0,0.16,0,0.26-0.01c0.09-0.01,0.18-0.02,0.25-0.05c0.08-0.03,0.14-0.07,0.19-0.14
		c0.05-0.06,0.08-0.15,0.08-0.27c0-0.04,0-0.08-0.01-0.12c-0.01-0.04-0.02-0.08-0.04-0.12c-0.03-0.06-0.08-0.1-0.14-0.13
		c-0.06-0.03-0.13-0.05-0.2-0.07c-0.07-0.01-0.14-0.02-0.21-0.03c-0.07,0-0.13,0-0.18,0h-1.38c-0.13,0-0.26-0.01-0.4-0.03
		c-0.13-0.02-0.26-0.06-0.36-0.12c-0.11-0.06-0.19-0.14-0.26-0.25c-0.07-0.11-0.1-0.26-0.1-0.44c0-0.18,0.03-0.32,0.1-0.43
		c0.06-0.11,0.15-0.2,0.25-0.26c0.1-0.06,0.22-0.1,0.35-0.12c0.13-0.02,0.26-0.03,0.39-0.03h2.37c0.05,0,0.09,0.02,0.12,0.06
		c0.04,0.04,0.05,0.08,0.05,0.13c0,0.05-0.02,0.09-0.05,0.13c-0.03,0.04-0.08,0.06-0.12,0.06h-2.33c-0.05,0-0.11,0-0.18,0
		c-0.07,0-0.14,0.01-0.21,0.02c-0.07,0.01-0.14,0.04-0.2,0.07c-0.06,0.03-0.11,0.08-0.14,0.13c-0.02,0.04-0.03,0.08-0.04,0.12
		c-0.01,0.04-0.01,0.08-0.01,0.12c0,0.12,0.03,0.21,0.08,0.27c0.05,0.06,0.12,0.11,0.19,0.14c0.08,0.03,0.16,0.04,0.26,0.05
		c0.09,0.01,0.18,0.01,0.26,0.01h1.38c0.13,0,0.26,0.01,0.4,0.03c0.13,0.02,0.25,0.06,0.36,0.12c0.11,0.06,0.19,0.14,0.26,0.26
		C86.11,30.17,86.15,30.31,86.15,30.49"/>
	<path d="M89.88,31.14c0,0.05-0.02,0.09-0.05,0.13c-0.03,0.04-0.07,0.05-0.12,0.05h-3c-0.04,0-0.08-0.02-0.12-0.05
		c-0.03-0.04-0.05-0.08-0.05-0.13v-0.68h-0.39c-0.04,0-0.08-0.02-0.12-0.06c-0.03-0.04-0.05-0.08-0.05-0.13
		c0-0.05,0.02-0.09,0.05-0.13c0.03-0.04,0.07-0.05,0.12-0.05h0.39v-1.56c0-0.05,0.02-0.09,0.05-0.13c0.04-0.04,0.07-0.06,0.12-0.06
		h3c0.05,0,0.08,0.02,0.12,0.06c0.03,0.04,0.05,0.08,0.05,0.13c0,0.05-0.02,0.09-0.05,0.13c-0.03,0.04-0.07,0.05-0.12,0.05h-2.83
		v1.39h2.28c0.05,0,0.08,0.02,0.12,0.05c0.03,0.04,0.05,0.08,0.05,0.13c0,0.05-0.02,0.09-0.05,0.13c-0.03,0.04-0.07,0.06-0.12,0.06
		h-2.28v0.5h2.83c0.05,0,0.08,0.02,0.12,0.06C89.87,31.05,89.88,31.09,89.88,31.14"/>
	<path d="M93.69,31.14c0,0.05-0.02,0.09-0.05,0.13c-0.03,0.04-0.07,0.06-0.12,0.06c-0.05,0-0.1-0.03-0.14-0.08l-0.78-1.23h-2.2v1.12
		c0,0.05-0.02,0.09-0.05,0.13c-0.03,0.04-0.07,0.06-0.12,0.06c-0.04,0-0.08-0.02-0.12-0.06c-0.03-0.04-0.05-0.08-0.05-0.13v-2.62
		c0-0.05,0.02-0.09,0.05-0.13c0.03-0.04,0.07-0.06,0.12-0.06c0.39,0,0.78,0,1.17,0c0.39,0,0.78,0,1.17,0c0.13,0,0.26,0.01,0.4,0.03
		c0.13,0.02,0.26,0.06,0.36,0.12c0.11,0.06,0.19,0.14,0.26,0.26c0.07,0.11,0.1,0.26,0.1,0.44c0,0.25-0.06,0.43-0.19,0.56
		c-0.13,0.13-0.3,0.21-0.51,0.25l0.67,1.04C93.68,31.07,93.69,31.11,93.69,31.14 M93.35,29.18c0-0.05,0-0.09-0.01-0.14
		c-0.01-0.04-0.02-0.09-0.05-0.12c-0.03-0.05-0.08-0.09-0.14-0.12c-0.06-0.03-0.13-0.05-0.2-0.06c-0.07-0.01-0.14-0.02-0.21-0.02
		c-0.07,0-0.13,0-0.18,0H90.4v0.94h2.17c0.08,0,0.17,0,0.26-0.01c0.09-0.01,0.18-0.02,0.26-0.05c0.08-0.03,0.14-0.08,0.19-0.14
		C93.33,29.39,93.35,29.3,93.35,29.18z"/>
	<path d="M97.74,28.52c0,0.05-0.01,0.08-0.03,0.11l-1.87,2.62c-0.03,0.05-0.08,0.07-0.13,0.07c-0.05,0-0.1-0.02-0.13-0.07
		l-1.86-2.62c-0.02-0.03-0.03-0.06-0.03-0.11c0-0.05,0.02-0.09,0.05-0.13c0.03-0.04,0.07-0.06,0.12-0.06c0.05,0,0.09,0.02,0.13,0.07
		l1.73,2.43l1.73-2.43c0.04-0.05,0.08-0.07,0.13-0.07c0.05,0,0.08,0.02,0.12,0.06C97.72,28.43,97.74,28.48,97.74,28.52"/>
	<path d="M100.06,31.14c0,0.05-0.02,0.09-0.05,0.13c-0.03,0.04-0.07,0.05-0.12,0.05h-1.81c-0.05,0-0.08-0.02-0.12-0.05
		c-0.03-0.04-0.05-0.08-0.05-0.13c0-0.05,0.02-0.09,0.05-0.13c0.03-0.04,0.07-0.06,0.12-0.06h0.74V28.7h-0.74
		c-0.05,0-0.08-0.02-0.12-0.05c-0.03-0.04-0.05-0.08-0.05-0.13c0-0.05,0.02-0.09,0.05-0.13c0.03-0.04,0.07-0.06,0.12-0.06h1.81
		c0.05,0,0.08,0.02,0.12,0.06c0.03,0.04,0.05,0.08,0.05,0.13c0,0.05-0.02,0.09-0.05,0.13c-0.03,0.04-0.07,0.05-0.12,0.05h-0.74v2.25
		h0.74c0.05,0,0.08,0.02,0.12,0.06C100.04,31.05,100.06,31.09,100.06,31.14"/>
	<path d="M104.08,30.75c0,0.03,0,0.06-0.01,0.08c-0.01,0.02-0.02,0.04-0.04,0.06c-0.02,0.03-0.05,0.05-0.08,0.07
		c-0.03,0.02-0.06,0.04-0.08,0.06c-0.11,0.07-0.22,0.13-0.35,0.17c-0.13,0.04-0.26,0.07-0.4,0.1c-0.13,0.02-0.27,0.04-0.41,0.05
		c-0.14,0.01-0.26,0.01-0.39,0.01c-0.13,0-0.27,0-0.42-0.01c-0.15-0.01-0.3-0.03-0.45-0.06c-0.15-0.03-0.3-0.07-0.44-0.13
		c-0.14-0.06-0.26-0.13-0.36-0.22c-0.16-0.15-0.27-0.3-0.33-0.48c-0.06-0.18-0.09-0.37-0.09-0.59c0-0.22,0.03-0.42,0.09-0.59
		c0.06-0.18,0.17-0.34,0.33-0.48c0.1-0.09,0.22-0.17,0.36-0.22c0.14-0.06,0.28-0.1,0.44-0.13c0.15-0.03,0.3-0.05,0.45-0.06
		c0.15-0.01,0.29-0.01,0.42-0.01c0.12,0,0.25,0,0.39,0.01c0.14,0.01,0.27,0.02,0.41,0.05c0.13,0.02,0.27,0.06,0.4,0.1
		c0.13,0.04,0.25,0.1,0.35,0.17c0.03,0.02,0.05,0.04,0.08,0.05c0.03,0.02,0.05,0.04,0.08,0.07c0.02,0.02,0.03,0.04,0.04,0.06
		c0.01,0.02,0.01,0.05,0.01,0.08c0,0.05-0.02,0.09-0.05,0.13c-0.03,0.04-0.07,0.06-0.12,0.06c-0.04,0-0.07-0.01-0.11-0.04
		c-0.05-0.04-0.1-0.08-0.15-0.11c-0.09-0.05-0.19-0.1-0.3-0.13c-0.11-0.03-0.23-0.06-0.35-0.08c-0.12-0.02-0.24-0.03-0.35-0.03
		c-0.12-0.01-0.23-0.01-0.33-0.01c-0.12,0-0.26,0-0.42,0.01c-0.16,0.01-0.32,0.03-0.48,0.07c-0.16,0.04-0.3,0.09-0.44,0.17
		c-0.13,0.08-0.24,0.18-0.31,0.31c-0.04,0.08-0.08,0.18-0.09,0.27c-0.02,0.1-0.02,0.19-0.02,0.29c0,0.1,0.01,0.2,0.02,0.29
		c0.02,0.1,0.05,0.19,0.09,0.27c0.07,0.13,0.17,0.23,0.31,0.31c0.13,0.08,0.28,0.13,0.44,0.17c0.16,0.04,0.31,0.06,0.48,0.07
		c0.16,0.01,0.3,0.01,0.42,0.01c0.1,0,0.21,0,0.33-0.01c0.12,0,0.23-0.02,0.35-0.03c0.12-0.02,0.23-0.04,0.35-0.08
		c0.11-0.03,0.21-0.08,0.3-0.13c0.06-0.03,0.11-0.07,0.15-0.11c0.03-0.03,0.07-0.04,0.11-0.04c0.04,0,0.08,0.02,0.12,0.06
		C104.07,30.65,104.08,30.7,104.08,30.75"/>
	<path d="M107.82,31.14c0,0.05-0.02,0.09-0.05,0.13c-0.03,0.04-0.07,0.05-0.12,0.05h-3c-0.04,0-0.08-0.02-0.12-0.05
		c-0.03-0.04-0.05-0.08-0.05-0.13v-0.68h-0.39c-0.04,0-0.08-0.02-0.12-0.06c-0.03-0.04-0.05-0.08-0.05-0.13
		c0-0.05,0.02-0.09,0.05-0.13c0.03-0.04,0.07-0.05,0.12-0.05h0.39v-1.56c0-0.05,0.02-0.09,0.05-0.13c0.04-0.04,0.07-0.06,0.12-0.06
		h3c0.05,0,0.08,0.02,0.12,0.06c0.03,0.04,0.05,0.08,0.05,0.13c0,0.05-0.02,0.09-0.05,0.13c-0.03,0.04-0.07,0.05-0.12,0.05h-2.83
		v1.39h2.28c0.05,0,0.08,0.02,0.12,0.05c0.03,0.04,0.05,0.08,0.05,0.13c0,0.05-0.02,0.09-0.05,0.13c-0.03,0.04-0.07,0.06-0.12,0.06
		h-2.28v0.5h2.83c0.05,0,0.08,0.02,0.12,0.06C107.8,31.05,107.82,31.09,107.82,31.14"/>
	<path d="M111.62,30.49c0,0.18-0.03,0.32-0.1,0.43c-0.06,0.11-0.15,0.19-0.25,0.26c-0.1,0.06-0.22,0.1-0.35,0.12
		c-0.13,0.02-0.26,0.03-0.39,0.03h-2.37c-0.05,0-0.08-0.02-0.12-0.06c-0.03-0.04-0.05-0.08-0.05-0.13c0-0.05,0.02-0.09,0.05-0.13
		c0.03-0.04,0.07-0.06,0.12-0.06h2.34c0.08,0,0.16,0,0.26-0.01c0.09-0.01,0.18-0.02,0.25-0.05c0.08-0.03,0.14-0.07,0.19-0.14
		c0.05-0.06,0.08-0.15,0.08-0.27c0-0.04,0-0.08-0.01-0.12c-0.01-0.04-0.02-0.08-0.04-0.12c-0.03-0.06-0.08-0.1-0.14-0.13
		c-0.06-0.03-0.13-0.05-0.2-0.07c-0.07-0.01-0.14-0.02-0.21-0.03c-0.07,0-0.13,0-0.18,0h-1.38c-0.13,0-0.26-0.01-0.4-0.03
		c-0.13-0.02-0.26-0.06-0.36-0.12c-0.11-0.06-0.19-0.14-0.26-0.25c-0.07-0.11-0.1-0.26-0.1-0.44c0-0.18,0.03-0.32,0.1-0.43
		c0.06-0.11,0.15-0.2,0.25-0.26c0.1-0.06,0.22-0.1,0.35-0.12c0.13-0.02,0.26-0.03,0.39-0.03h2.37c0.05,0,0.09,0.02,0.12,0.06
		c0.04,0.04,0.05,0.08,0.05,0.13c0,0.05-0.02,0.09-0.05,0.13c-0.04,0.04-0.08,0.06-0.12,0.06h-2.33c-0.05,0-0.11,0-0.18,0
		c-0.07,0-0.14,0.01-0.21,0.02c-0.07,0.01-0.14,0.04-0.2,0.07c-0.06,0.03-0.11,0.08-0.14,0.13c-0.02,0.04-0.03,0.08-0.04,0.12
		c-0.01,0.04-0.01,0.08-0.01,0.12c0,0.12,0.03,0.21,0.08,0.27c0.05,0.06,0.12,0.11,0.19,0.14c0.08,0.03,0.16,0.04,0.26,0.05
		c0.09,0.01,0.18,0.01,0.26,0.01h1.38c0.13,0,0.26,0.01,0.4,0.03c0.13,0.02,0.25,0.06,0.36,0.12c0.11,0.06,0.19,0.14,0.26,0.26
		C111.59,30.17,111.62,30.31,111.62,30.49"/>
	<path d="M117.76,31.14c0,0.05-0.02,0.09-0.05,0.13c-0.03,0.04-0.07,0.06-0.12,0.06c-0.02,0-0.07-0.02-0.15-0.06
		c-0.08-0.04-0.16-0.08-0.25-0.13c-0.09-0.05-0.17-0.1-0.24-0.14c-0.08-0.04-0.13-0.08-0.15-0.09c-0.19,0.12-0.39,0.22-0.6,0.3
		c-0.21,0.08-0.43,0.12-0.65,0.12c-0.09,0-0.19-0.01-0.29-0.02c-0.1-0.01-0.2-0.04-0.3-0.08c-0.1-0.04-0.19-0.09-0.27-0.14
		c-0.08-0.06-0.16-0.14-0.21-0.23c-0.03-0.05-0.06-0.1-0.07-0.17c-0.02-0.06-0.03-0.12-0.03-0.18c0-0.12,0.02-0.23,0.07-0.32
		c0.05-0.09,0.11-0.17,0.19-0.24c0.08-0.07,0.17-0.12,0.26-0.17c0.1-0.05,0.19-0.09,0.28-0.12c-0.07-0.08-0.13-0.17-0.19-0.27
		c-0.06-0.1-0.08-0.21-0.08-0.33c0-0.14,0.03-0.25,0.09-0.34c0.06-0.09,0.13-0.17,0.22-0.22c0.09-0.06,0.19-0.1,0.3-0.12
		c0.11-0.02,0.22-0.04,0.32-0.04c0.1,0,0.21,0.01,0.32,0.04c0.11,0.03,0.21,0.07,0.31,0.12c0.09,0.06,0.17,0.13,0.23,0.22
		c0.06,0.09,0.09,0.21,0.09,0.34c0,0.12-0.03,0.23-0.1,0.31c-0.06,0.09-0.14,0.16-0.23,0.22c-0.09,0.06-0.19,0.11-0.3,0.14
		c-0.11,0.04-0.2,0.07-0.29,0.1c0.15,0.12,0.3,0.23,0.45,0.34c0.15,0.11,0.3,0.21,0.46,0.31c0.14-0.11,0.27-0.22,0.39-0.34
		c0.03-0.03,0.06-0.06,0.08-0.09c0.03-0.03,0.06-0.06,0.08-0.09c0.02-0.02,0.04-0.03,0.06-0.04c0.02-0.01,0.04-0.02,0.07-0.02
		c0.05,0,0.08,0.02,0.12,0.06c0.03,0.04,0.05,0.08,0.05,0.13c0,0.03,0,0.05-0.01,0.07c-0.01,0.02-0.02,0.03-0.03,0.06
		c-0.02,0.03-0.05,0.07-0.09,0.11c-0.04,0.04-0.09,0.09-0.13,0.13c-0.05,0.05-0.1,0.09-0.14,0.13c-0.05,0.04-0.08,0.07-0.11,0.1
		c0.06,0.03,0.12,0.07,0.18,0.1c0.06,0.03,0.12,0.07,0.19,0.1c0.03,0.02,0.06,0.03,0.09,0.05c0.03,0.01,0.06,0.03,0.09,0.05
		C117.73,31.02,117.76,31.07,117.76,31.14 M116.46,30.69c-0.17-0.11-0.34-0.23-0.51-0.35c-0.17-0.12-0.33-0.25-0.48-0.39
		c-0.05,0.02-0.13,0.04-0.21,0.07c-0.09,0.03-0.17,0.07-0.25,0.11c-0.08,0.04-0.15,0.1-0.21,0.16c-0.06,0.06-0.09,0.13-0.09,0.22
		c0,0.06,0.02,0.11,0.05,0.15c0.04,0.05,0.08,0.08,0.13,0.12c0.05,0.03,0.1,0.06,0.15,0.08c0.05,0.02,0.1,0.04,0.14,0.05
		c0.06,0.02,0.12,0.03,0.18,0.04c0.06,0,0.12,0.01,0.19,0.01c0.16,0,0.31-0.02,0.47-0.07C116.18,30.83,116.32,30.77,116.46,30.69z
		 M116.45,29.06c0-0.07-0.02-0.13-0.07-0.18c-0.05-0.05-0.1-0.08-0.16-0.11c-0.06-0.03-0.13-0.04-0.2-0.05
		c-0.07-0.01-0.13-0.01-0.18-0.01c-0.05,0-0.11,0-0.18,0.01c-0.07,0.01-0.14,0.03-0.2,0.05c-0.06,0.03-0.12,0.06-0.16,0.11
		c-0.04,0.05-0.07,0.1-0.07,0.18c0,0.04,0.01,0.09,0.03,0.13c0.02,0.05,0.05,0.09,0.08,0.13c0.03,0.04,0.07,0.08,0.1,0.12
		c0.04,0.04,0.07,0.07,0.09,0.09c0.03-0.01,0.07-0.02,0.13-0.04c0.06-0.01,0.12-0.03,0.18-0.05c0.07-0.02,0.14-0.04,0.2-0.07
		c0.07-0.03,0.13-0.06,0.19-0.09c0.06-0.03,0.1-0.07,0.14-0.11C116.43,29.14,116.45,29.1,116.45,29.06z"/>
	<path d="M124.01,29.86c0,0.3-0.05,0.55-0.14,0.74c-0.09,0.19-0.22,0.34-0.38,0.45c-0.16,0.11-0.34,0.18-0.55,0.22
		c-0.21,0.04-0.44,0.06-0.68,0.06c-0.24,0-0.47-0.02-0.68-0.06c-0.21-0.04-0.4-0.11-0.55-0.22c-0.16-0.11-0.28-0.26-0.38-0.45
		c-0.09-0.19-0.14-0.44-0.14-0.74c0-0.05,0.02-0.09,0.05-0.13c0.03-0.04,0.07-0.05,0.12-0.05c0.04,0,0.08,0.02,0.12,0.05
		c0.03,0.04,0.05,0.08,0.05,0.13c0,0.09,0,0.18,0.01,0.26c0.01,0.09,0.03,0.17,0.06,0.25c0.05,0.13,0.12,0.24,0.23,0.32
		c0.1,0.08,0.22,0.14,0.35,0.18c0.13,0.04,0.26,0.07,0.39,0.08c0.13,0.01,0.26,0.02,0.37,0.02c0.11,0,0.23-0.01,0.37-0.02
		c0.13-0.01,0.27-0.04,0.39-0.08c0.13-0.04,0.24-0.1,0.35-0.18c0.1-0.08,0.18-0.18,0.23-0.32c0.03-0.08,0.05-0.16,0.06-0.25
		c0.01-0.09,0.01-0.18,0.01-0.26v-1.33c0-0.05,0.02-0.09,0.05-0.13c0.03-0.04,0.07-0.06,0.12-0.06c0.04,0,0.08,0.02,0.12,0.06
		c0.03,0.04,0.05,0.08,0.05,0.13V29.86z"/>
	<path d="M128.36,29.84c0,0.22-0.03,0.42-0.09,0.59c-0.06,0.18-0.17,0.34-0.33,0.48c-0.1,0.09-0.22,0.17-0.36,0.22
		c-0.14,0.06-0.29,0.1-0.44,0.13c-0.15,0.03-0.31,0.05-0.46,0.06c-0.15,0.01-0.29,0.01-0.41,0.01c-0.12,0-0.26,0-0.41-0.01
		c-0.15-0.01-0.3-0.03-0.45-0.06c-0.15-0.03-0.3-0.07-0.44-0.13c-0.14-0.05-0.26-0.13-0.36-0.22c-0.16-0.14-0.27-0.3-0.33-0.48
		c-0.06-0.18-0.09-0.37-0.09-0.59c0-0.22,0.03-0.42,0.09-0.59c0.06-0.18,0.17-0.34,0.33-0.48c0.1-0.09,0.22-0.16,0.36-0.22
		c0.14-0.05,0.28-0.1,0.44-0.13c0.15-0.03,0.3-0.05,0.45-0.06c0.15-0.01,0.29-0.02,0.41-0.02c0.12,0,0.26,0.01,0.41,0.02
		c0.15,0.01,0.3,0.03,0.46,0.06c0.15,0.03,0.3,0.07,0.44,0.13c0.14,0.06,0.26,0.13,0.36,0.22c0.16,0.14,0.27,0.3,0.33,0.48
		C128.33,29.42,128.36,29.62,128.36,29.84 M128.02,29.83c0-0.08,0-0.17-0.01-0.25c-0.01-0.08-0.03-0.17-0.06-0.25
		c-0.06-0.15-0.16-0.26-0.3-0.35c-0.14-0.08-0.29-0.15-0.45-0.19c-0.16-0.04-0.33-0.07-0.49-0.08c-0.17-0.01-0.31-0.01-0.44-0.01
		c-0.12,0-0.26,0-0.43,0.01c-0.16,0.01-0.33,0.03-0.49,0.07c-0.16,0.04-0.31,0.1-0.44,0.18c-0.13,0.08-0.24,0.19-0.3,0.33
		c-0.04,0.08-0.06,0.17-0.08,0.26c-0.01,0.09-0.02,0.18-0.02,0.27c0,0.09,0.01,0.18,0.02,0.28c0.01,0.09,0.04,0.18,0.08,0.26
		c0.07,0.14,0.17,0.25,0.3,0.33c0.13,0.08,0.28,0.14,0.44,0.18c0.16,0.04,0.32,0.06,0.49,0.07c0.16,0.01,0.31,0.01,0.43,0.01
		c0.13,0,0.27,0,0.44-0.01c0.17-0.01,0.33-0.03,0.49-0.08c0.16-0.04,0.31-0.1,0.45-0.19c0.14-0.08,0.24-0.2,0.3-0.35
		c0.04-0.08,0.06-0.16,0.06-0.25C128.02,30,128.02,29.92,128.02,29.83z"/>
	<path d="M132.07,30.49c0,0.18-0.03,0.32-0.1,0.43c-0.06,0.11-0.15,0.19-0.25,0.25c-0.1,0.06-0.22,0.1-0.35,0.12
		c-0.13,0.02-0.26,0.03-0.39,0.03h-2.37c-0.04,0-0.08-0.02-0.12-0.06c-0.03-0.04-0.05-0.08-0.05-0.13v-2.62
		c0-0.05,0.02-0.09,0.05-0.13c0.03-0.04,0.07-0.06,0.12-0.06h0.56c0.2,0,0.4,0,0.61,0c0.21,0,0.41,0,0.61,0h0.56
		c0.13,0,0.26,0.01,0.4,0.03c0.13,0.02,0.26,0.06,0.36,0.12c0.11,0.06,0.19,0.14,0.26,0.26c0.07,0.11,0.1,0.26,0.1,0.44
		c0,0.14-0.02,0.26-0.07,0.37c-0.05,0.11-0.12,0.21-0.23,0.28c0.11,0.07,0.18,0.17,0.23,0.28
		C132.04,30.23,132.07,30.36,132.07,30.49 M131.73,29.18c0-0.05,0-0.09-0.01-0.14c-0.01-0.04-0.02-0.09-0.05-0.12
		c-0.03-0.05-0.08-0.09-0.14-0.12c-0.06-0.03-0.13-0.05-0.2-0.06c-0.07-0.01-0.14-0.02-0.21-0.02c-0.07,0-0.13,0-0.18,0h-2.17v0.94
		h2.17c0.08,0,0.17,0,0.26-0.01c0.09-0.01,0.18-0.02,0.25-0.05c0.08-0.03,0.14-0.08,0.19-0.14
		C131.71,29.39,131.73,29.3,131.73,29.18z M131.73,30.49c0-0.05,0-0.09-0.01-0.13c-0.01-0.04-0.02-0.08-0.05-0.12
		c-0.03-0.05-0.08-0.09-0.14-0.12c-0.06-0.03-0.13-0.05-0.2-0.06c-0.07-0.01-0.14-0.02-0.21-0.02c-0.07,0-0.13,0-0.18,0h-2.17v0.94
		h2.17c0.08,0,0.17,0,0.26-0.01c0.09-0.01,0.18-0.02,0.25-0.05c0.08-0.03,0.14-0.07,0.19-0.14
		C131.71,30.7,131.73,30.61,131.73,30.49z"/>
	<path d="M138.31,31.14c0,0.05-0.02,0.09-0.05,0.13c-0.03,0.04-0.07,0.05-0.12,0.05c-0.05,0-0.08-0.02-0.12-0.05
		c-0.03-0.04-0.05-0.08-0.05-0.13v-0.69h-2.82v0.69c0,0.05-0.02,0.09-0.05,0.13c-0.03,0.04-0.07,0.05-0.12,0.05
		c-0.04,0-0.08-0.02-0.12-0.05c-0.03-0.04-0.05-0.08-0.05-0.13V29.8c0-0.3,0.05-0.55,0.14-0.74c0.09-0.19,0.22-0.34,0.38-0.45
		c0.16-0.11,0.34-0.18,0.55-0.22c0.21-0.04,0.44-0.06,0.68-0.06c0.24,0,0.46,0.02,0.68,0.06c0.21,0.04,0.4,0.11,0.55,0.22
		c0.16,0.11,0.28,0.26,0.38,0.45c0.09,0.19,0.14,0.44,0.14,0.74V31.14z M137.97,29.8c0-0.08,0-0.17-0.01-0.25
		c-0.01-0.08-0.03-0.17-0.05-0.25c-0.05-0.14-0.12-0.25-0.23-0.33c-0.1-0.08-0.22-0.14-0.35-0.18c-0.13-0.04-0.26-0.06-0.39-0.07
		c-0.14-0.01-0.26-0.02-0.38-0.02c-0.11,0-0.23,0.01-0.36,0.02c-0.13,0.01-0.26,0.04-0.39,0.07c-0.13,0.04-0.24,0.1-0.35,0.17
		c-0.1,0.08-0.18,0.18-0.23,0.31c-0.04,0.08-0.06,0.17-0.06,0.26c-0.01,0.09-0.01,0.18-0.01,0.27v0.28h2.82V29.8z"/>
	<path d="M142.11,30.49c0,0.18-0.03,0.32-0.1,0.43c-0.06,0.11-0.15,0.19-0.25,0.26c-0.1,0.06-0.22,0.1-0.35,0.12
		c-0.13,0.02-0.26,0.03-0.39,0.03h-2.37c-0.05,0-0.08-0.02-0.12-0.06c-0.03-0.04-0.05-0.08-0.05-0.13c0-0.05,0.02-0.09,0.05-0.13
		c0.03-0.04,0.07-0.06,0.12-0.06h2.33c0.08,0,0.16,0,0.26-0.01c0.09-0.01,0.18-0.02,0.25-0.05c0.08-0.03,0.14-0.07,0.19-0.14
		c0.05-0.06,0.08-0.15,0.08-0.27c0-0.04,0-0.08-0.01-0.12c-0.01-0.04-0.02-0.08-0.04-0.12c-0.03-0.06-0.08-0.1-0.14-0.13
		c-0.06-0.03-0.13-0.05-0.2-0.07c-0.07-0.01-0.14-0.02-0.21-0.03c-0.07,0-0.13,0-0.18,0h-1.38c-0.13,0-0.26-0.01-0.4-0.03
		c-0.13-0.02-0.26-0.06-0.36-0.12c-0.11-0.06-0.19-0.14-0.26-0.25c-0.07-0.11-0.1-0.26-0.1-0.44c0-0.18,0.03-0.32,0.1-0.43
		c0.06-0.11,0.15-0.2,0.25-0.26c0.1-0.06,0.22-0.1,0.35-0.12c0.13-0.02,0.26-0.03,0.39-0.03h2.37c0.05,0,0.09,0.02,0.12,0.06
		c0.04,0.04,0.05,0.08,0.05,0.13c0,0.05-0.02,0.09-0.05,0.13c-0.04,0.04-0.08,0.06-0.12,0.06h-2.33c-0.05,0-0.11,0-0.18,0
		c-0.07,0-0.14,0.01-0.21,0.02c-0.07,0.01-0.14,0.04-0.2,0.07c-0.06,0.03-0.11,0.08-0.14,0.13c-0.02,0.04-0.03,0.08-0.04,0.12
		c-0.01,0.04-0.01,0.08-0.01,0.12c0,0.12,0.03,0.21,0.08,0.27c0.05,0.06,0.12,0.11,0.19,0.14c0.08,0.03,0.16,0.04,0.26,0.05
		c0.09,0.01,0.18,0.01,0.26,0.01h1.38c0.13,0,0.26,0.01,0.4,0.03c0.13,0.02,0.25,0.06,0.36,0.12c0.11,0.06,0.19,0.14,0.26,0.26
		C142.08,30.17,142.11,30.31,142.11,30.49"/>
	<path d="M145.91,30.49c0,0.18-0.03,0.32-0.1,0.43c-0.06,0.11-0.15,0.19-0.25,0.26c-0.1,0.06-0.22,0.1-0.35,0.12
		c-0.13,0.02-0.26,0.03-0.39,0.03h-2.37c-0.05,0-0.08-0.02-0.12-0.06c-0.03-0.04-0.05-0.08-0.05-0.13c0-0.05,0.02-0.09,0.05-0.13
		c0.03-0.04,0.07-0.06,0.12-0.06h2.34c0.08,0,0.16,0,0.26-0.01c0.09-0.01,0.18-0.02,0.25-0.05c0.08-0.03,0.14-0.07,0.19-0.14
		c0.05-0.06,0.08-0.15,0.08-0.27c0-0.04,0-0.08-0.01-0.12c-0.01-0.04-0.02-0.08-0.04-0.12c-0.03-0.06-0.08-0.1-0.14-0.13
		c-0.06-0.03-0.13-0.05-0.2-0.07c-0.07-0.01-0.14-0.02-0.21-0.03c-0.07,0-0.13,0-0.18,0h-1.38c-0.13,0-0.26-0.01-0.4-0.03
		c-0.13-0.02-0.25-0.06-0.36-0.12c-0.11-0.06-0.19-0.14-0.26-0.25c-0.07-0.11-0.1-0.26-0.1-0.44c0-0.18,0.03-0.32,0.1-0.43
		c0.06-0.11,0.15-0.2,0.25-0.26c0.1-0.06,0.22-0.1,0.35-0.12c0.13-0.02,0.26-0.03,0.39-0.03h2.37c0.05,0,0.09,0.02,0.12,0.06
		c0.04,0.04,0.05,0.08,0.05,0.13c0,0.05-0.02,0.09-0.05,0.13c-0.04,0.04-0.08,0.06-0.12,0.06h-2.33c-0.05,0-0.11,0-0.18,0
		c-0.07,0-0.14,0.01-0.21,0.02c-0.07,0.01-0.14,0.04-0.2,0.07c-0.06,0.03-0.11,0.08-0.14,0.13c-0.02,0.04-0.03,0.08-0.04,0.12
		c-0.01,0.04-0.01,0.08-0.01,0.12c0,0.12,0.03,0.21,0.08,0.27c0.05,0.06,0.12,0.11,0.19,0.14c0.08,0.03,0.16,0.04,0.26,0.05
		c0.09,0.01,0.18,0.01,0.26,0.01h1.38c0.13,0,0.26,0.01,0.4,0.03c0.13,0.02,0.26,0.06,0.36,0.12c0.11,0.06,0.19,0.14,0.26,0.26
		C145.88,30.17,145.91,30.31,145.91,30.49"/>
	<path d="M148.24,31.14c0,0.05-0.02,0.09-0.05,0.13c-0.03,0.04-0.07,0.05-0.12,0.05h-1.81c-0.05,0-0.08-0.02-0.12-0.05
		c-0.03-0.04-0.05-0.08-0.05-0.13c0-0.05,0.02-0.09,0.05-0.13c0.03-0.04,0.07-0.06,0.12-0.06h0.74V28.7h-0.74
		c-0.05,0-0.08-0.02-0.12-0.05c-0.03-0.04-0.05-0.08-0.05-0.13c0-0.05,0.02-0.09,0.05-0.13c0.03-0.04,0.07-0.06,0.12-0.06h1.81
		c0.05,0,0.08,0.02,0.12,0.06c0.03,0.04,0.05,0.08,0.05,0.13c0,0.05-0.02,0.09-0.05,0.13c-0.03,0.04-0.07,0.05-0.12,0.05h-0.74v2.25
		h0.74c0.05,0,0.08,0.02,0.12,0.06C148.22,31.05,148.24,31.09,148.24,31.14"/>
	<path d="M152.04,30.49c0,0.18-0.03,0.32-0.1,0.43c-0.06,0.11-0.15,0.19-0.25,0.26c-0.1,0.06-0.22,0.1-0.35,0.12
		c-0.13,0.02-0.26,0.03-0.39,0.03h-2.37c-0.05,0-0.08-0.02-0.12-0.06c-0.03-0.04-0.05-0.08-0.05-0.13c0-0.05,0.02-0.09,0.05-0.13
		c0.03-0.04,0.07-0.06,0.12-0.06h2.34c0.08,0,0.16,0,0.26-0.01c0.09-0.01,0.18-0.02,0.25-0.05c0.08-0.03,0.14-0.07,0.19-0.14
		c0.05-0.06,0.08-0.15,0.08-0.27c0-0.04,0-0.08-0.01-0.12c-0.01-0.04-0.02-0.08-0.04-0.12c-0.03-0.06-0.08-0.1-0.14-0.13
		c-0.06-0.03-0.13-0.05-0.2-0.07c-0.07-0.01-0.14-0.02-0.21-0.03c-0.07,0-0.13,0-0.18,0h-1.38c-0.13,0-0.26-0.01-0.4-0.03
		c-0.13-0.02-0.26-0.06-0.36-0.12c-0.11-0.06-0.19-0.14-0.26-0.25c-0.07-0.11-0.1-0.26-0.1-0.44c0-0.18,0.03-0.32,0.1-0.43
		c0.06-0.11,0.15-0.2,0.25-0.26c0.1-0.06,0.22-0.1,0.35-0.12c0.13-0.02,0.26-0.03,0.39-0.03h2.37c0.05,0,0.09,0.02,0.12,0.06
		c0.04,0.04,0.05,0.08,0.05,0.13c0,0.05-0.02,0.09-0.05,0.13c-0.04,0.04-0.08,0.06-0.12,0.06h-2.33c-0.05,0-0.11,0-0.18,0
		c-0.07,0-0.14,0.01-0.21,0.02c-0.07,0.01-0.14,0.04-0.2,0.07c-0.06,0.03-0.11,0.08-0.14,0.13c-0.02,0.04-0.03,0.08-0.04,0.12
		c-0.01,0.04-0.01,0.08-0.01,0.12c0,0.12,0.03,0.21,0.08,0.27c0.05,0.06,0.12,0.11,0.19,0.14c0.08,0.03,0.16,0.04,0.26,0.05
		c0.09,0.01,0.18,0.01,0.26,0.01h1.38c0.13,0,0.26,0.01,0.4,0.03c0.13,0.02,0.25,0.06,0.36,0.12c0.11,0.06,0.19,0.14,0.26,0.26
		C152.01,30.17,152.04,30.31,152.04,30.49"/>
	<path d="M155.56,28.52c0,0.05-0.02,0.09-0.05,0.13c-0.03,0.04-0.07,0.05-0.12,0.05h-1.33v2.44c0,0.05-0.02,0.09-0.05,0.13
		c-0.03,0.04-0.07,0.05-0.11,0.05c-0.04,0-0.08-0.02-0.12-0.05c-0.03-0.04-0.05-0.08-0.05-0.13V28.7h-1.33
		c-0.05,0-0.08-0.02-0.12-0.05c-0.03-0.04-0.05-0.08-0.05-0.13c0-0.05,0.02-0.09,0.05-0.13c0.03-0.04,0.07-0.06,0.12-0.06h3
		c0.05,0,0.08,0.02,0.12,0.06C155.54,28.43,155.56,28.47,155.56,28.52"/>
	<path d="M158.85,31.14c0,0.05-0.02,0.09-0.05,0.13c-0.03,0.04-0.07,0.05-0.12,0.05c-0.05,0-0.08-0.02-0.12-0.05
		c-0.03-0.04-0.05-0.08-0.05-0.13v-0.69h-2.82v0.69c0,0.05-0.02,0.09-0.05,0.13c-0.03,0.04-0.07,0.05-0.12,0.05
		c-0.04,0-0.08-0.02-0.12-0.05c-0.03-0.04-0.05-0.08-0.05-0.13V29.8c0-0.3,0.05-0.55,0.14-0.74c0.09-0.19,0.22-0.34,0.38-0.45
		c0.16-0.11,0.34-0.18,0.55-0.22c0.21-0.04,0.44-0.06,0.68-0.06c0.24,0,0.46,0.02,0.68,0.06c0.21,0.04,0.4,0.11,0.55,0.22
		c0.16,0.11,0.28,0.26,0.38,0.45c0.09,0.19,0.14,0.44,0.14,0.74V31.14z M158.51,29.8c0-0.08,0-0.17-0.01-0.25
		c-0.01-0.08-0.03-0.17-0.05-0.25c-0.05-0.14-0.12-0.25-0.23-0.33c-0.1-0.08-0.22-0.14-0.35-0.18c-0.13-0.04-0.26-0.06-0.39-0.07
		c-0.14-0.01-0.26-0.02-0.38-0.02c-0.11,0-0.23,0.01-0.37,0.02c-0.13,0.01-0.26,0.04-0.39,0.07c-0.13,0.04-0.24,0.1-0.35,0.17
		c-0.1,0.08-0.18,0.18-0.23,0.31c-0.04,0.08-0.06,0.17-0.06,0.26c-0.01,0.09-0.01,0.18-0.01,0.27v0.28h2.82V29.8z"/>
	<path d="M162.36,31.14c0,0.05-0.02,0.09-0.05,0.13c-0.03,0.04-0.07,0.05-0.12,0.05c-0.05,0-0.08-0.01-0.11-0.04l-2.73-2.38v2.23
		c0,0.05-0.02,0.09-0.05,0.13c-0.03,0.04-0.07,0.05-0.12,0.05c-0.05,0-0.08-0.02-0.12-0.05c-0.03-0.04-0.05-0.08-0.05-0.13v-2.62
		c0-0.05,0.02-0.09,0.05-0.13c0.03-0.04,0.07-0.06,0.12-0.06c0.04,0,0.07,0.01,0.1,0.04l2.73,2.38v-2.23c0-0.05,0.02-0.09,0.05-0.13
		c0.03-0.04,0.07-0.06,0.12-0.06c0.05,0,0.08,0.02,0.12,0.06c0.03,0.04,0.05,0.08,0.05,0.13V31.14z"/>
	<path d="M166.38,30.75c0,0.03-0.01,0.06-0.01,0.08c-0.01,0.02-0.02,0.04-0.04,0.06c-0.02,0.03-0.05,0.05-0.08,0.07
		c-0.03,0.02-0.06,0.04-0.08,0.06c-0.11,0.07-0.22,0.13-0.35,0.17c-0.13,0.04-0.26,0.07-0.4,0.1c-0.13,0.02-0.27,0.04-0.4,0.05
		c-0.14,0.01-0.26,0.01-0.39,0.01c-0.13,0-0.27,0-0.42-0.01c-0.15-0.01-0.3-0.03-0.45-0.06c-0.15-0.03-0.3-0.07-0.44-0.13
		c-0.14-0.06-0.26-0.13-0.36-0.22c-0.16-0.15-0.27-0.3-0.33-0.48c-0.06-0.18-0.09-0.37-0.09-0.59c0-0.22,0.03-0.42,0.09-0.59
		c0.06-0.18,0.17-0.34,0.33-0.48c0.1-0.09,0.22-0.17,0.36-0.22c0.14-0.06,0.28-0.1,0.44-0.13c0.15-0.03,0.3-0.05,0.45-0.06
		c0.15-0.01,0.29-0.01,0.42-0.01c0.12,0,0.25,0,0.39,0.01c0.14,0.01,0.27,0.02,0.4,0.05c0.13,0.02,0.27,0.06,0.4,0.1
		c0.13,0.04,0.25,0.1,0.35,0.17c0.03,0.02,0.05,0.04,0.08,0.05c0.03,0.02,0.05,0.04,0.08,0.07c0.02,0.02,0.03,0.04,0.04,0.06
		c0.01,0.02,0.01,0.05,0.01,0.08c0,0.05-0.02,0.09-0.05,0.13c-0.03,0.04-0.07,0.06-0.12,0.06c-0.04,0-0.07-0.01-0.11-0.04
		c-0.05-0.04-0.1-0.08-0.15-0.11c-0.09-0.05-0.19-0.1-0.3-0.13c-0.11-0.03-0.23-0.06-0.34-0.08c-0.12-0.02-0.24-0.03-0.35-0.03
		c-0.12-0.01-0.23-0.01-0.33-0.01c-0.12,0-0.26,0-0.42,0.01c-0.16,0.01-0.32,0.03-0.48,0.07c-0.16,0.04-0.3,0.09-0.44,0.17
		c-0.13,0.08-0.24,0.18-0.31,0.31c-0.04,0.08-0.08,0.18-0.09,0.27c-0.02,0.1-0.02,0.19-0.02,0.29c0,0.1,0.01,0.2,0.02,0.29
		c0.02,0.1,0.05,0.19,0.09,0.27c0.07,0.13,0.17,0.23,0.31,0.31c0.13,0.08,0.28,0.13,0.44,0.17c0.16,0.04,0.31,0.06,0.48,0.07
		c0.16,0.01,0.3,0.01,0.42,0.01c0.1,0,0.21,0,0.33-0.01c0.12,0,0.23-0.02,0.35-0.03c0.12-0.02,0.23-0.04,0.34-0.08
		c0.11-0.03,0.21-0.08,0.3-0.13c0.06-0.03,0.11-0.07,0.15-0.11c0.04-0.03,0.07-0.04,0.11-0.04c0.04,0,0.08,0.02,0.12,0.06
		C166.37,30.65,166.38,30.7,166.38,30.75"/>
	<path d="M170.12,31.14c0,0.05-0.02,0.09-0.05,0.13c-0.03,0.04-0.07,0.05-0.12,0.05h-3c-0.04,0-0.08-0.02-0.12-0.05
		c-0.03-0.04-0.05-0.08-0.05-0.13v-0.68h-0.39c-0.04,0-0.08-0.02-0.12-0.06c-0.03-0.04-0.05-0.08-0.05-0.13
		c0-0.05,0.02-0.09,0.05-0.13c0.03-0.04,0.07-0.05,0.12-0.05h0.39v-1.56c0-0.05,0.02-0.09,0.05-0.13c0.04-0.04,0.07-0.06,0.12-0.06
		h3c0.05,0,0.08,0.02,0.12,0.06c0.03,0.04,0.05,0.08,0.05,0.13c0,0.05-0.02,0.09-0.05,0.13c-0.03,0.04-0.07,0.05-0.12,0.05h-2.83
		v1.39h2.28c0.05,0,0.08,0.02,0.12,0.05c0.03,0.04,0.05,0.08,0.05,0.13c0,0.05-0.02,0.09-0.05,0.13c-0.03,0.04-0.07,0.06-0.12,0.06
		h-2.28v0.5h2.83c0.05,0,0.08,0.02,0.12,0.06C170.1,31.05,170.12,31.09,170.12,31.14"/>
	<path d="M29.17,37.77h0.37v0.58c0.15-0.22,0.32-0.38,0.5-0.49c0.18-0.11,0.38-0.16,0.6-0.16c0.22,0,0.41,0.06,0.58,0.18
		c0.17,0.12,0.3,0.29,0.38,0.49c0.08,0.21,0.12,0.53,0.12,0.96v1.65h-0.37v-1.53c0-0.37-0.01-0.62-0.04-0.74
		c-0.05-0.21-0.13-0.37-0.25-0.48c-0.12-0.11-0.29-0.16-0.48-0.16c-0.23,0-0.43,0.08-0.61,0.25c-0.18,0.16-0.3,0.37-0.36,0.61
		c-0.04,0.16-0.05,0.45-0.05,0.87v1.18h-0.37V37.77z M26.95,38.1c-0.31,0-0.58,0.13-0.81,0.38c-0.22,0.25-0.34,0.56-0.34,0.92
		c0,0.23,0.05,0.45,0.15,0.65c0.1,0.2,0.24,0.35,0.42,0.46c0.17,0.11,0.37,0.16,0.57,0.16c0.21,0,0.4-0.05,0.57-0.16
		c0.17-0.11,0.31-0.26,0.42-0.46c0.1-0.2,0.15-0.42,0.15-0.65c0-0.36-0.11-0.66-0.34-0.92C27.53,38.22,27.26,38.1,26.95,38.1z
		 M26.95,37.69c0.45,0,0.82,0.18,1.12,0.54c0.27,0.33,0.4,0.71,0.4,1.16c0,0.45-0.14,0.84-0.43,1.17c-0.28,0.33-0.65,0.5-1.1,0.5
		c-0.45,0-0.82-0.17-1.1-0.5c-0.29-0.33-0.43-0.73-0.43-1.17c0-0.44,0.13-0.83,0.4-1.15C26.12,37.87,26.5,37.69,26.95,37.69z
		 M24.41,37.77h0.37v3.21h-0.37V37.77z M24.59,36.45c0.09,0,0.16,0.03,0.22,0.1c0.06,0.07,0.09,0.15,0.09,0.24
		c0,0.09-0.03,0.17-0.09,0.24c-0.06,0.07-0.13,0.1-0.22,0.1c-0.08,0-0.16-0.03-0.22-0.1c-0.06-0.07-0.09-0.15-0.09-0.24
		c0-0.09,0.03-0.18,0.09-0.24C24.44,36.48,24.51,36.45,24.59,36.45z M22.92,36.57h0.37v1.2h0.59v0.36H23.3v2.85h-0.37v-2.85h-0.51
		v-0.36h0.51V36.57z M20.24,38.09c-0.21,0-0.4,0.06-0.58,0.17c-0.18,0.11-0.32,0.27-0.42,0.47c-0.1,0.2-0.16,0.42-0.16,0.65
		c0,0.22,0.05,0.44,0.16,0.65c0.11,0.21,0.25,0.37,0.42,0.48c0.18,0.11,0.37,0.17,0.57,0.17c0.2,0,0.4-0.06,0.58-0.17
		c0.18-0.11,0.33-0.27,0.42-0.46c0.1-0.19,0.15-0.41,0.15-0.65c0-0.37-0.11-0.68-0.33-0.93C20.84,38.21,20.57,38.09,20.24,38.09z
		 M21.75,37.77v3.21h-0.37v-0.55c-0.16,0.21-0.33,0.37-0.53,0.47c-0.2,0.1-0.41,0.16-0.64,0.16c-0.41,0-0.77-0.16-1.06-0.49
		c-0.29-0.33-0.44-0.73-0.44-1.2c0-0.46,0.15-0.86,0.44-1.18c0.29-0.33,0.65-0.49,1.06-0.49c0.24,0,0.46,0.06,0.65,0.17
		c0.19,0.11,0.36,0.28,0.51,0.5v-0.59H21.75z M16.48,38.09c-0.21,0-0.4,0.06-0.58,0.17c-0.18,0.11-0.32,0.27-0.42,0.47
		c-0.1,0.2-0.16,0.42-0.16,0.65c0,0.22,0.05,0.44,0.16,0.65c0.11,0.21,0.25,0.37,0.42,0.48c0.18,0.11,0.37,0.17,0.57,0.17
		c0.2,0,0.4-0.06,0.58-0.17c0.18-0.11,0.33-0.27,0.42-0.46c0.1-0.19,0.15-0.41,0.15-0.65c0-0.37-0.11-0.68-0.33-0.93
		C17.08,38.21,16.8,38.09,16.48,38.09z M17.98,36.53v4.45h-0.37v-0.55c-0.16,0.21-0.33,0.37-0.53,0.47c-0.2,0.1-0.41,0.16-0.64,0.16
		c-0.41,0-0.77-0.16-1.06-0.49c-0.29-0.33-0.44-0.73-0.44-1.2c0-0.46,0.15-0.86,0.44-1.18c0.29-0.33,0.65-0.49,1.06-0.49
		c0.24,0,0.46,0.06,0.65,0.17c0.19,0.11,0.36,0.28,0.51,0.5v-1.83H17.98z M11.71,37.77h0.37v0.58c0.15-0.22,0.32-0.38,0.5-0.49
		c0.18-0.11,0.38-0.16,0.6-0.16c0.22,0,0.41,0.06,0.58,0.18c0.17,0.12,0.3,0.29,0.38,0.49c0.08,0.21,0.12,0.53,0.12,0.96v1.65h-0.37
		v-1.53c0-0.37-0.01-0.62-0.04-0.74c-0.05-0.21-0.13-0.37-0.25-0.48c-0.12-0.11-0.29-0.16-0.48-0.16c-0.23,0-0.43,0.08-0.61,0.25
		c-0.18,0.16-0.3,0.37-0.36,0.61c-0.04,0.16-0.05,0.45-0.05,0.87v1.18h-0.37V37.77z M8.32,37.77h0.37v1.5
		c0,0.37,0.02,0.62,0.05,0.75c0.05,0.2,0.16,0.35,0.31,0.47c0.15,0.11,0.33,0.17,0.54,0.17c0.21,0,0.39-0.06,0.53-0.17
		c0.15-0.11,0.25-0.26,0.3-0.44c0.04-0.12,0.06-0.39,0.06-0.79v-1.5h0.39v1.57c0,0.44-0.05,0.78-0.14,1
		c-0.09,0.22-0.24,0.4-0.42,0.53c-0.19,0.13-0.43,0.19-0.71,0.19c-0.29,0-0.52-0.06-0.71-0.19c-0.19-0.13-0.33-0.3-0.43-0.53
		c-0.09-0.23-0.14-0.57-0.14-1.02V37.77z M6.14,38.1c-0.31,0-0.58,0.13-0.81,0.38C5.11,38.73,5,39.03,5,39.39
		c0,0.23,0.05,0.45,0.15,0.65c0.1,0.2,0.24,0.35,0.42,0.46c0.17,0.11,0.37,0.16,0.57,0.16c0.21,0,0.4-0.05,0.57-0.16
		c0.17-0.11,0.31-0.26,0.42-0.46c0.1-0.2,0.15-0.42,0.15-0.65c0-0.36-0.11-0.66-0.34-0.92C6.72,38.22,6.46,38.1,6.14,38.1z
		 M6.15,37.69c0.45,0,0.82,0.18,1.12,0.54c0.27,0.33,0.4,0.71,0.4,1.16c0,0.45-0.14,0.84-0.43,1.17c-0.28,0.33-0.65,0.5-1.1,0.5
		c-0.45,0-0.82-0.17-1.1-0.5c-0.29-0.33-0.43-0.73-0.43-1.17c0-0.44,0.13-0.83,0.4-1.15C5.32,37.87,5.69,37.69,6.15,37.69z
		 M2.15,36.64h1.98v0.42H2.55v1.36h1.59v0.42H2.55v2.13h-0.4V36.64z"/>
	<path class="st2" d="M29.17,37.77h0.37v0.58c0.15-0.22,0.32-0.38,0.5-0.49c0.18-0.11,0.38-0.16,0.6-0.16
		c0.22,0,0.41,0.06,0.58,0.18c0.17,0.12,0.3,0.29,0.38,0.49c0.08,0.21,0.12,0.53,0.12,0.96v1.65h-0.37v-1.53
		c0-0.37-0.01-0.62-0.04-0.74c-0.05-0.21-0.13-0.37-0.25-0.48c-0.12-0.11-0.29-0.16-0.48-0.16c-0.23,0-0.43,0.08-0.61,0.25
		c-0.18,0.16-0.3,0.37-0.36,0.61c-0.04,0.16-0.05,0.45-0.05,0.87v1.18h-0.37V37.77z M26.95,38.1c-0.31,0-0.58,0.13-0.81,0.38
		c-0.22,0.25-0.34,0.56-0.34,0.92c0,0.23,0.05,0.45,0.15,0.65c0.1,0.2,0.24,0.35,0.42,0.46c0.17,0.11,0.37,0.16,0.57,0.16
		c0.21,0,0.4-0.05,0.57-0.16c0.17-0.11,0.31-0.26,0.42-0.46c0.1-0.2,0.15-0.42,0.15-0.65c0-0.36-0.11-0.66-0.34-0.92
		C27.53,38.22,27.26,38.1,26.95,38.1z M26.95,37.69c0.45,0,0.82,0.18,1.12,0.54c0.27,0.33,0.4,0.71,0.4,1.16
		c0,0.45-0.14,0.84-0.43,1.17c-0.28,0.33-0.65,0.5-1.1,0.5c-0.45,0-0.82-0.17-1.1-0.5c-0.29-0.33-0.43-0.73-0.43-1.17
		c0-0.44,0.13-0.83,0.4-1.15C26.12,37.87,26.5,37.69,26.95,37.69z M24.41,37.77h0.37v3.21h-0.37V37.77z M24.59,36.45
		c0.09,0,0.16,0.03,0.22,0.1c0.06,0.07,0.09,0.15,0.09,0.24c0,0.09-0.03,0.17-0.09,0.24c-0.06,0.07-0.13,0.1-0.22,0.1
		c-0.08,0-0.16-0.03-0.22-0.1c-0.06-0.07-0.09-0.15-0.09-0.24c0-0.09,0.03-0.18,0.09-0.24C24.44,36.48,24.51,36.45,24.59,36.45z
		 M22.92,36.57h0.37v1.2h0.59v0.36H23.3v2.85h-0.37v-2.85h-0.51v-0.36h0.51V36.57z M20.24,38.09c-0.21,0-0.4,0.06-0.58,0.17
		c-0.18,0.11-0.32,0.27-0.42,0.47c-0.1,0.2-0.16,0.42-0.16,0.65c0,0.22,0.05,0.44,0.16,0.65c0.11,0.21,0.25,0.37,0.42,0.48
		c0.18,0.11,0.37,0.17,0.57,0.17c0.2,0,0.4-0.06,0.58-0.17c0.18-0.11,0.33-0.27,0.42-0.46c0.1-0.19,0.15-0.41,0.15-0.65
		c0-0.37-0.11-0.68-0.33-0.93C20.84,38.21,20.57,38.09,20.24,38.09z M21.75,37.77v3.21h-0.37v-0.55c-0.16,0.21-0.33,0.37-0.53,0.47
		c-0.2,0.1-0.41,0.16-0.64,0.16c-0.41,0-0.77-0.16-1.06-0.49c-0.29-0.33-0.44-0.73-0.44-1.2c0-0.46,0.15-0.86,0.44-1.18
		c0.29-0.33,0.65-0.49,1.06-0.49c0.24,0,0.46,0.06,0.65,0.17c0.19,0.11,0.36,0.28,0.51,0.5v-0.59H21.75z M16.48,38.09
		c-0.21,0-0.4,0.06-0.58,0.17c-0.18,0.11-0.32,0.27-0.42,0.47c-0.1,0.2-0.16,0.42-0.16,0.65c0,0.22,0.05,0.44,0.16,0.65
		c0.11,0.21,0.25,0.37,0.42,0.48c0.18,0.11,0.37,0.17,0.57,0.17c0.2,0,0.4-0.06,0.58-0.17c0.18-0.11,0.33-0.27,0.42-0.46
		c0.1-0.19,0.15-0.41,0.15-0.65c0-0.37-0.11-0.68-0.33-0.93C17.08,38.21,16.8,38.09,16.48,38.09z M17.98,36.53v4.45h-0.37v-0.55
		c-0.16,0.21-0.33,0.37-0.53,0.47c-0.2,0.1-0.41,0.16-0.64,0.16c-0.41,0-0.77-0.16-1.06-0.49c-0.29-0.33-0.44-0.73-0.44-1.2
		c0-0.46,0.15-0.86,0.44-1.18c0.29-0.33,0.65-0.49,1.06-0.49c0.24,0,0.46,0.06,0.65,0.17c0.19,0.11,0.36,0.28,0.51,0.5v-1.83H17.98z
		 M11.71,37.77h0.37v0.58c0.15-0.22,0.32-0.38,0.5-0.49c0.18-0.11,0.38-0.16,0.6-0.16c0.22,0,0.41,0.06,0.58,0.18
		c0.17,0.12,0.3,0.29,0.38,0.49c0.08,0.21,0.12,0.53,0.12,0.96v1.65h-0.37v-1.53c0-0.37-0.01-0.62-0.04-0.74
		c-0.05-0.21-0.13-0.37-0.25-0.48c-0.12-0.11-0.29-0.16-0.48-0.16c-0.23,0-0.43,0.08-0.61,0.25c-0.18,0.16-0.3,0.37-0.36,0.61
		c-0.04,0.16-0.05,0.45-0.05,0.87v1.18h-0.37V37.77z M8.32,37.77h0.37v1.5c0,0.37,0.02,0.62,0.05,0.75c0.05,0.2,0.16,0.35,0.31,0.47
		c0.15,0.11,0.33,0.17,0.54,0.17c0.21,0,0.39-0.06,0.53-0.17c0.15-0.11,0.25-0.26,0.3-0.44c0.04-0.12,0.06-0.39,0.06-0.79v-1.5h0.39
		v1.57c0,0.44-0.05,0.78-0.14,1c-0.09,0.22-0.24,0.4-0.42,0.53c-0.19,0.13-0.43,0.19-0.71,0.19c-0.29,0-0.52-0.06-0.71-0.19
		c-0.19-0.13-0.33-0.3-0.43-0.53c-0.09-0.23-0.14-0.57-0.14-1.02V37.77z M6.14,38.1c-0.31,0-0.58,0.13-0.81,0.38
		C5.11,38.73,5,39.03,5,39.39c0,0.23,0.05,0.45,0.15,0.65c0.1,0.2,0.24,0.35,0.42,0.46c0.17,0.11,0.37,0.16,0.57,0.16
		c0.21,0,0.4-0.05,0.57-0.16c0.17-0.11,0.31-0.26,0.42-0.46c0.1-0.2,0.15-0.42,0.15-0.65c0-0.36-0.11-0.66-0.34-0.92
		C6.72,38.22,6.46,38.1,6.14,38.1z M6.15,37.69c0.45,0,0.82,0.18,1.12,0.54c0.27,0.33,0.4,0.71,0.4,1.16c0,0.45-0.14,0.84-0.43,1.17
		c-0.28,0.33-0.65,0.5-1.1,0.5c-0.45,0-0.82-0.17-1.1-0.5c-0.29-0.33-0.43-0.73-0.43-1.17c0-0.44,0.13-0.83,0.4-1.15
		C5.32,37.87,5.69,37.69,6.15,37.69z M2.15,36.64h1.98v0.42H2.55v1.36h1.59v0.42H2.55v2.13h-0.4V36.64z"/>
</g>
</svg>
